<svg width="375" height="43" viewBox="0 0 375 43" fill="none" xmlns="http://www.w3.org/2000/svg">
<g clip-path="url(#clip0_383_789)">
<path d="M78 -3H297C294.894 -2.39731 293.418 -0.504754 293.345 1.68446L293.317 2.5618C293.317 16.0587 282.375 27 268.878 27H106.122C92.6249 27 81.6835 16.0587 81.6835 2.5618L81.6545 1.68447C81.5823 -0.50475 80.1059 -2.39731 78 -3Z" fill="white"/>
<path opacity="0.35" d="M336.5 19C336.5 17.8034 337.47 16.8334 338.667 16.8334H355.333C356.53 16.8334 357.5 17.8034 357.5 19V25C357.5 26.1967 356.53 27.1667 355.333 27.1667H338.667C337.47 27.1667 336.5 26.1967 336.5 25V19Z" stroke="white"/>
<path opacity="0.4" d="M359 20V24C359.805 23.6612 360.328 22.8731 360.328 22C360.328 21.1269 359.805 20.3388 359 20Z" fill="white"/>
<path d="M338 19.6667C338 18.9303 338.597 18.3334 339.333 18.3334H354.667C355.403 18.3334 356 18.9303 356 19.6667V24.3334C356 25.0698 355.403 25.6667 354.667 25.6667H339.333C338.597 25.6667 338 25.0698 338 24.3334V19.6667Z" fill="white"/>
<path fill-rule="evenodd" clip-rule="evenodd" d="M323.33 18.608C325.546 18.6081 327.678 19.4596 329.283 20.9863C329.404 21.1042 329.598 21.1027 329.717 20.983L330.873 19.8163C330.933 19.7556 330.967 19.6734 330.966 19.5878C330.966 19.5022 330.931 19.4204 330.87 19.3603C326.655 15.3208 320.005 15.3208 315.79 19.3603C315.729 19.4203 315.694 19.5021 315.694 19.5877C315.693 19.6733 315.727 19.7556 315.787 19.8163L316.943 20.983C317.062 21.1029 317.256 21.1044 317.377 20.9863C318.983 19.4595 321.114 18.608 323.33 18.608ZM323.33 22.4037C324.548 22.4036 325.722 22.8561 326.624 23.6733C326.747 23.7893 326.939 23.7868 327.058 23.6677L328.212 22.501C328.273 22.4398 328.307 22.3568 328.306 22.2705C328.305 22.1843 328.27 22.102 328.208 22.042C325.46 19.4856 321.204 19.4856 318.455 22.042C318.393 22.102 318.358 22.1843 318.357 22.2706C318.356 22.3569 318.39 22.4399 318.451 22.501L319.605 23.6677C319.724 23.7868 319.917 23.7893 320.039 23.6733C320.941 22.8567 322.114 22.4042 323.33 22.4037ZM325.643 24.9575C325.645 25.044 325.611 25.1274 325.549 25.188L323.552 27.2037C323.494 27.2629 323.414 27.2963 323.33 27.2963C323.247 27.2963 323.167 27.2629 323.109 27.2037L321.111 25.188C321.049 25.1274 321.015 25.0439 321.017 24.9574C321.019 24.8709 321.057 24.789 321.121 24.731C322.396 23.6521 324.265 23.6521 325.54 24.731C325.604 24.7891 325.642 24.871 325.643 24.9575Z" fill="white"/>
<path fill-rule="evenodd" clip-rule="evenodd" d="M309.667 16.6666H308.667C308.114 16.6666 307.667 17.1143 307.667 17.6666V26.3333C307.667 26.8856 308.114 27.3333 308.667 27.3333H309.667C310.219 27.3333 310.667 26.8856 310.667 26.3333V17.6666C310.667 17.1143 310.219 16.6666 309.667 16.6666ZM304 19H305C305.552 19 306 19.4477 306 20V26.3333C306 26.8856 305.552 27.3333 305 27.3333H304C303.448 27.3333 303 26.8856 303 26.3333V20C303 19.4477 303.448 19 304 19ZM300.333 21.3333H299.333C298.781 21.3333 298.333 21.781 298.333 22.3333V26.3333C298.333 26.8856 298.781 27.3333 299.333 27.3333H300.333C300.886 27.3333 301.333 26.8856 301.333 26.3333V22.3333C301.333 21.781 300.886 21.3333 300.333 21.3333ZM295.667 23.3333H294.667C294.114 23.3333 293.667 23.781 293.667 24.3333V26.3333C293.667 26.8856 294.114 27.3333 294.667 27.3333H295.667C296.219 27.3333 296.667 26.8856 296.667 26.3333V24.3333C296.667 23.781 296.219 23.3333 295.667 23.3333Z" fill="white"/>
<path d="M37.3208 27.2563C40.0088 27.2563 41.6055 25.1543 41.6055 21.5947C41.6055 20.2544 41.3491 19.1265 40.8584 18.2549C40.1479 16.8999 38.9248 16.1675 37.3794 16.1675C35.0796 16.1675 33.4536 17.7129 33.4536 19.8809C33.4536 21.917 34.9185 23.3965 36.9326 23.3965C38.1704 23.3965 39.1738 22.8179 39.6719 21.8145H39.6938C39.6938 21.8145 39.7231 21.8145 39.7305 21.8145C39.7451 21.8145 39.7964 21.8145 39.7964 21.8145C39.7964 24.2314 38.8809 25.6743 37.3354 25.6743C36.4272 25.6743 35.7241 25.1763 35.4824 24.3779H33.6001C33.915 26.1138 35.3872 27.2563 37.3208 27.2563ZM37.3867 21.895C36.1709 21.895 35.3066 21.0308 35.3066 19.8223C35.3066 18.6431 36.2148 17.7422 37.394 17.7422C38.5732 17.7422 39.4814 18.6577 39.4814 19.8516C39.4814 21.0308 38.5952 21.895 37.3867 21.895Z" fill="white"/>
<path d="M44.6966 27.1538C45.3924 27.1538 45.8685 26.6558 45.8685 25.9966C45.8685 25.3301 45.3924 24.8394 44.6966 24.8394C44.0081 24.8394 43.5247 25.3301 43.5247 25.9966C43.5247 26.6558 44.0081 27.1538 44.6966 27.1538ZM44.6966 21.6606C45.3924 21.6606 45.8685 21.1699 45.8685 20.5107C45.8685 19.8442 45.3924 19.3535 44.6966 19.3535C44.0081 19.3535 43.5247 19.8442 43.5247 20.5107C43.5247 21.1699 44.0081 21.6606 44.6966 21.6606Z" fill="white"/>
<path d="M52.7242 27H54.5333V25.0298H55.9615V23.4331H54.5333V16.4312H51.8673C49.9996 19.2437 48.5128 21.5947 47.5606 23.3452V25.0298H52.7242V27ZM49.3111 23.3672C50.5416 21.1992 51.6402 19.4634 52.651 17.9692H52.7535V23.4771H49.3111V23.3672Z" fill="white"/>
<path d="M59.9901 27H61.8798V16.4312H59.9975L57.2362 18.3647V20.1812L59.8656 18.3354H59.9901V27Z" fill="white"/>
</g>
<defs>
<clipPath id="clip0_383_789">
<rect width="375" height="44" fill="white" transform="translate(0 -1)"/>
</clipPath>
</defs>
</svg>
