<svg width="362" height="257" viewBox="0 0 362 257" fill="none" xmlns="http://www.w3.org/2000/svg">
<g filter="url(#filter0_d_421_1219)">
<rect x="51" y="7" width="295" height="66" rx="8" fill="white"/>
<path d="M99.294 45H93.246V35.48H94.814V43.768H99.07L99.294 45ZM101.229 37.118C100.967 37.118 100.748 37.0293 100.571 36.852C100.393 36.6747 100.305 36.4553 100.305 36.194C100.295 35.9327 100.379 35.7133 100.557 35.536C100.743 35.3493 100.967 35.256 101.229 35.256C101.49 35.256 101.709 35.3493 101.887 35.536C102.073 35.7133 102.167 35.9327 102.167 36.194C102.167 36.4553 102.073 36.6747 101.887 36.852C101.709 37.0293 101.49 37.118 101.229 37.118ZM100.431 45V38.21H102.027V45H100.431ZM107.865 39.848C107.575 39.708 107.286 39.596 106.997 39.512C106.717 39.4187 106.404 39.372 106.059 39.372C105.769 39.372 105.541 39.4327 105.373 39.554C105.205 39.666 105.121 39.8247 105.121 40.03C105.121 40.1887 105.219 40.3333 105.415 40.464C105.62 40.5853 105.909 40.716 106.283 40.856C106.843 41.052 107.365 41.332 107.851 41.696C108.336 42.0507 108.579 42.5173 108.579 43.096C108.579 43.7493 108.341 44.258 107.865 44.622C107.398 44.986 106.707 45.168 105.793 45.168C105.503 45.168 105.125 45.1167 104.659 45.014C104.192 44.9113 103.805 44.7433 103.497 44.51L103.973 43.362C104.281 43.5113 104.589 43.628 104.897 43.712C105.205 43.7867 105.499 43.824 105.779 43.824C106.171 43.824 106.469 43.768 106.675 43.656C106.889 43.5347 106.997 43.3713 106.997 43.166C106.997 42.942 106.885 42.746 106.661 42.578C106.446 42.4007 106.133 42.2467 105.723 42.116C105.191 41.9387 104.682 41.6913 104.197 41.374C103.721 41.0473 103.483 40.6087 103.483 40.058C103.483 39.4233 103.716 38.9287 104.183 38.574C104.649 38.21 105.284 38.028 106.087 38.028C106.376 38.028 106.745 38.0887 107.193 38.21C107.641 38.322 108.023 38.4853 108.341 38.7L107.865 39.848ZM111.148 43.012C111.148 43.236 111.237 43.446 111.414 43.642C111.591 43.8287 111.839 43.922 112.156 43.922C112.445 43.922 112.73 43.852 113.01 43.712C113.299 43.5627 113.561 43.3713 113.794 43.138V41.934H112.282C111.909 41.934 111.624 42.0413 111.428 42.256C111.241 42.4707 111.148 42.7227 111.148 43.012ZM110.154 38.644C110.415 38.4667 110.803 38.322 111.316 38.21C111.829 38.0887 112.231 38.028 112.52 38.028C113.323 38.028 113.999 38.2567 114.55 38.714C115.101 39.1713 115.376 39.7547 115.376 40.464V45H114.522C114.457 44.9067 114.391 44.8087 114.326 44.706C114.261 44.594 114.195 44.4913 114.13 44.398C113.887 44.6033 113.589 44.7853 113.234 44.944C112.879 45.0933 112.529 45.168 112.184 45.168C111.372 45.168 110.765 44.9673 110.364 44.566C109.972 44.1647 109.776 43.6467 109.776 43.012C109.776 42.3213 110.009 41.794 110.476 41.43C110.943 41.0567 111.554 40.87 112.31 40.87H113.78C113.752 40.4687 113.649 40.1373 113.472 39.876C113.295 39.6053 112.987 39.47 112.548 39.47C112.193 39.47 111.839 39.5167 111.484 39.61C111.139 39.7033 110.84 39.8107 110.588 39.932C110.513 39.7173 110.439 39.5027 110.364 39.288C110.289 39.0733 110.219 38.8587 110.154 38.644ZM124.407 39.904H127.753V43.81C127.753 43.9313 127.748 44.0527 127.739 44.174C127.739 44.286 127.739 44.398 127.739 44.51L127.753 44.524C127.407 44.7107 126.978 44.8693 126.465 45C125.951 45.1307 125.424 45.196 124.883 45.196C123.408 45.196 122.293 44.7247 121.537 43.782C120.79 42.83 120.417 41.668 120.417 40.296C120.417 38.8307 120.837 37.6313 121.677 36.698C122.517 35.7553 123.646 35.284 125.065 35.284C125.354 35.284 125.755 35.3307 126.269 35.424C126.782 35.5173 127.225 35.6713 127.599 35.886L127.109 37.02C126.726 36.8987 126.399 36.8053 126.129 36.74C125.867 36.6653 125.522 36.628 125.093 36.628C124.215 36.628 123.487 36.936 122.909 37.552C122.339 38.168 122.055 39.078 122.055 40.282C122.055 41.3833 122.293 42.256 122.769 42.9C123.254 43.544 123.945 43.866 124.841 43.866C125.158 43.866 125.438 43.8473 125.681 43.81C125.923 43.7633 126.133 43.7167 126.311 43.67V41.108H124.281L124.407 39.904ZM132.656 45.168C131.601 45.1587 130.789 44.832 130.22 44.188C129.651 43.5347 129.366 42.6667 129.366 41.584C129.375 40.52 129.679 39.666 130.276 39.022C130.873 38.3687 131.704 38.0373 132.768 38.028C133.86 38.028 134.7 38.364 135.288 39.036C135.876 39.708 136.17 40.5807 136.17 41.654C136.161 42.718 135.839 43.572 135.204 44.216C134.569 44.8507 133.72 45.168 132.656 45.168ZM134.546 41.654C134.546 40.9727 134.401 40.4267 134.112 40.016C133.832 39.596 133.398 39.386 132.81 39.386C132.222 39.386 131.774 39.5773 131.466 39.96C131.158 40.3333 131.004 40.87 131.004 41.57C131.004 42.2793 131.135 42.8347 131.396 43.236C131.657 43.628 132.082 43.824 132.67 43.824C133.258 43.824 133.715 43.642 134.042 43.278C134.369 42.914 134.537 42.3727 134.546 41.654ZM139.071 39.022C139.37 38.7047 139.748 38.4527 140.205 38.266C140.672 38.07 141.092 37.972 141.465 37.972C142.333 37.972 142.958 38.2287 143.341 38.742C143.733 39.246 143.929 39.876 143.929 40.632V45H142.347V40.73C142.347 40.2913 142.24 39.946 142.025 39.694C141.82 39.442 141.507 39.316 141.087 39.316C140.816 39.316 140.518 39.3953 140.191 39.554C139.864 39.7033 139.57 39.8947 139.309 40.128V45H137.727V38.21H138.595L139.071 39.022ZM148.72 45.168C147.666 45.1587 146.854 44.832 146.284 44.188C145.715 43.5347 145.43 42.6667 145.43 41.584C145.44 40.52 145.743 39.666 146.34 39.022C146.938 38.3687 147.768 38.0373 148.832 38.028C149.924 38.028 150.764 38.364 151.352 39.036C151.94 39.708 152.234 40.5807 152.234 41.654C152.225 42.718 151.903 43.572 151.268 44.216C150.634 44.8507 149.784 45.168 148.72 45.168ZM150.61 41.654C150.61 40.9727 150.466 40.4267 150.176 40.016C149.896 39.596 149.462 39.386 148.874 39.386C148.286 39.386 147.838 39.5773 147.53 39.96C147.222 40.3333 147.068 40.87 147.068 41.57C147.068 42.2793 147.199 42.8347 147.46 43.236C147.722 43.628 148.146 43.824 148.734 43.824C149.322 43.824 149.78 43.642 150.106 43.278C150.433 42.914 150.601 42.3727 150.61 41.654Z" fill="#487A6C"/>
<path d="M341 14.6604L340.274 14L335.5 18.3396L330.726 14L330 14.6604L334.774 19L330 23.3396L330.726 24L335.5 19.6604L340.274 24L341 23.3396L336.226 19L341 14.6604Z" fill="#666666"/>
<path opacity="0.3" d="M94.64 53.631C95.3807 53.631 95.9343 53.8143 96.301 54.181C96.675 54.5477 96.862 54.9693 96.862 55.446C96.862 55.8273 96.7447 56.1647 96.51 56.458C96.2827 56.744 96.0113 56.9383 95.696 57.041C96.0553 57.129 96.3597 57.3307 96.609 57.646C96.8657 57.9613 96.994 58.3427 96.994 58.79C96.994 59.362 96.7667 59.846 96.312 60.242C95.8573 60.638 95.245 60.836 94.475 60.836C94.0717 60.836 93.6757 60.77 93.287 60.638C92.9057 60.5133 92.5793 60.3777 92.308 60.231L92.77 59.637C93.034 59.7983 93.2943 59.9193 93.551 60C93.8077 60.088 94.1267 60.132 94.508 60.132C94.9187 60.132 95.289 60.0183 95.619 59.791C95.9563 59.5563 96.125 59.23 96.125 58.812C96.125 58.372 95.9637 58.0237 95.641 57.767C95.3257 57.5103 94.8087 57.382 94.09 57.382H93.826L93.694 56.733H94.156C94.728 56.733 95.1753 56.6193 95.498 56.392C95.828 56.1573 95.993 55.8457 95.993 55.457C95.993 55.1637 95.8683 54.907 95.619 54.687C95.3697 54.4597 95.0323 54.346 94.607 54.346C94.2257 54.346 93.8883 54.4083 93.595 54.533C93.3017 54.6503 93.0633 54.7677 92.88 54.885L92.451 54.313C92.759 54.115 93.089 53.9537 93.441 53.829C93.8003 53.697 94.2 53.631 94.64 53.631ZM101.951 52.234L98.5846 60.044L97.7486 60L101.104 52.19L101.951 52.234ZM105.785 60H102.804L102.705 59.34H103.882V54.819C103.757 54.907 103.629 54.995 103.497 55.083C103.372 55.1637 103.247 55.2443 103.123 55.325C103.049 55.2297 102.98 55.1307 102.914 55.028C102.848 54.9253 102.782 54.8263 102.716 54.731L104.179 53.774H104.762V59.34H105.697C105.711 59.4573 105.726 59.571 105.741 59.681C105.763 59.7837 105.777 59.89 105.785 60ZM110.146 60H107.165L107.066 59.34H108.243V54.819C108.118 54.907 107.99 54.995 107.858 55.083C107.733 55.1637 107.609 55.2443 107.484 55.325C107.411 55.2297 107.341 55.1307 107.275 55.028C107.209 54.9253 107.143 54.8263 107.077 54.731L108.54 53.774H109.123V59.34H110.058C110.073 59.4573 110.087 59.571 110.102 59.681C110.124 59.7837 110.139 59.89 110.146 60ZM115.002 52.234L111.636 60.044L110.8 60L114.155 52.19L115.002 52.234ZM117.56 53.631C118.36 53.631 118.917 53.8363 119.232 54.247C119.555 54.6577 119.716 55.0793 119.716 55.512C119.716 55.93 119.581 56.3187 119.309 56.678C119.038 57.03 118.638 57.437 118.11 57.899L116.493 59.318H119.826L119.936 60H115.404V59.351L117.637 57.327C118.099 56.909 118.418 56.5753 118.594 56.326C118.77 56.0693 118.858 55.798 118.858 55.512C118.858 55.1747 118.748 54.896 118.528 54.676C118.308 54.456 117.978 54.346 117.538 54.346C117.194 54.346 116.864 54.434 116.548 54.61C116.24 54.786 116.083 54.8777 116.075 54.885L115.69 54.258C115.749 54.2213 115.947 54.1077 116.284 53.917C116.629 53.7263 117.054 53.631 117.56 53.631ZM121.148 56.843C121.148 55.8457 121.397 55.061 121.896 54.489C122.395 53.917 123.044 53.631 123.843 53.631C124.642 53.631 125.288 53.9097 125.779 54.467C126.27 55.017 126.516 55.8053 126.516 56.832C126.516 57.8293 126.263 58.6323 125.757 59.241C125.251 59.8423 124.613 60.143 123.843 60.143C123.058 60.143 122.413 59.8497 121.907 59.263C121.401 58.6763 121.148 57.8697 121.148 56.843ZM122.017 56.81C122.017 57.624 122.189 58.2583 122.534 58.713C122.879 59.1677 123.315 59.395 123.843 59.395C124.349 59.395 124.778 59.1677 125.13 58.713C125.482 58.2583 125.658 57.6423 125.658 56.865C125.658 56.0583 125.486 55.4423 125.141 55.017C124.804 54.5843 124.371 54.368 123.843 54.368C123.322 54.368 122.886 54.5843 122.534 55.017C122.189 55.4423 122.017 56.04 122.017 56.81ZM129.688 53.631C130.488 53.631 131.045 53.8363 131.36 54.247C131.683 54.6577 131.844 55.0793 131.844 55.512C131.844 55.93 131.709 56.3187 131.437 56.678C131.166 57.03 130.766 57.437 130.238 57.899L128.621 59.318H131.954L132.064 60H127.532V59.351L129.765 57.327C130.227 56.909 130.546 56.5753 130.722 56.326C130.898 56.0693 130.986 55.798 130.986 55.512C130.986 55.1747 130.876 54.896 130.656 54.676C130.436 54.456 130.106 54.346 129.666 54.346C129.322 54.346 128.992 54.434 128.676 54.61C128.368 54.786 128.211 54.8777 128.203 54.885L127.818 54.258C127.877 54.2213 128.075 54.1077 128.412 53.917C128.757 53.7263 129.182 53.631 129.688 53.631ZM135.267 53.631C136.008 53.631 136.561 53.8143 136.928 54.181C137.302 54.5477 137.489 54.9693 137.489 55.446C137.489 55.8273 137.372 56.1647 137.137 56.458C136.91 56.744 136.638 56.9383 136.323 57.041C136.682 57.129 136.987 57.3307 137.236 57.646C137.493 57.9613 137.621 58.3427 137.621 58.79C137.621 59.362 137.394 59.846 136.939 60.242C136.484 60.638 135.872 60.836 135.102 60.836C134.699 60.836 134.303 60.77 133.914 60.638C133.533 60.5133 133.206 60.3777 132.935 60.231L133.397 59.637C133.661 59.7983 133.921 59.9193 134.178 60C134.435 60.088 134.754 60.132 135.135 60.132C135.546 60.132 135.916 60.0183 136.246 59.791C136.583 59.5563 136.752 59.23 136.752 58.812C136.752 58.372 136.591 58.0237 136.268 57.767C135.953 57.5103 135.436 57.382 134.717 57.382H134.453L134.321 56.733H134.783C135.355 56.733 135.802 56.6193 136.125 56.392C136.455 56.1573 136.62 55.8457 136.62 55.457C136.62 55.1637 136.495 54.907 136.246 54.687C135.997 54.4597 135.659 54.346 135.234 54.346C134.853 54.346 134.515 54.4083 134.222 54.533C133.929 54.6503 133.69 54.7677 133.507 54.885L133.078 54.313C133.386 54.115 133.716 53.9537 134.068 53.829C134.427 53.697 134.827 53.631 135.267 53.631ZM144.147 60.495L147.502 54.489H144.158L144.048 53.774H148.283L148.569 54.159L144.972 60.759L144.147 60.495ZM149.628 54.973C149.797 54.973 149.936 55.0353 150.046 55.16C150.163 55.2773 150.222 55.4167 150.222 55.578C150.222 55.7393 150.163 55.8787 150.046 55.996C149.936 56.1133 149.797 56.172 149.628 56.172C149.467 56.172 149.327 56.1133 149.21 55.996C149.093 55.8787 149.034 55.7393 149.034 55.578C149.034 55.4167 149.093 55.2773 149.21 55.16C149.327 55.0353 149.467 54.973 149.628 54.973ZM149.628 58.515C149.797 58.515 149.936 58.5737 150.046 58.691C150.163 58.801 150.222 58.9403 150.222 59.109C150.222 59.2777 150.163 59.4207 150.046 59.538C149.936 59.648 149.797 59.703 149.628 59.703C149.467 59.703 149.327 59.648 149.21 59.538C149.093 59.4207 149.034 59.2777 149.034 59.109C149.034 58.9403 149.093 58.801 149.21 58.691C149.327 58.5737 149.467 58.515 149.628 58.515ZM156.06 59.23H155.015V60.759H154.135V59.23H150.846L150.725 58.515L154.41 53.719H155.015V58.515H156.159L156.06 59.23ZM151.66 58.515H154.135V55.237L151.66 58.515ZM157.134 60.495L160.489 54.489H157.145L157.035 53.774H161.27L161.556 54.159L157.959 60.759L157.134 60.495ZM167.712 53.675L166.403 57.173H169.065L167.712 53.675ZM168.141 52.52L171.012 59.868L170.143 60L169.318 57.877H166.161L165.38 60H164.533L167.294 52.52H168.141ZM175.253 57.536L173.031 54.346V60H172.173V52.52H172.679L175.374 56.337L177.97 52.52H178.52V60H177.64V54.368L175.55 57.481L175.253 57.536Z" fill="black"/>
<path d="M254.926 49L252.066 41.663L252.913 41.52L255.344 47.867L257.698 41.52H258.545L255.773 49H254.926ZM259.915 42.609C259.747 42.609 259.607 42.554 259.497 42.444C259.387 42.3267 259.332 42.1837 259.332 42.015C259.325 41.8537 259.376 41.718 259.486 41.608C259.604 41.4907 259.747 41.432 259.915 41.432C260.077 41.432 260.216 41.4907 260.333 41.608C260.458 41.718 260.52 41.8537 260.52 42.015C260.52 42.1837 260.458 42.3267 260.333 42.444C260.216 42.554 260.077 42.609 259.915 42.609ZM259.486 49V43.665H260.366V49H259.486ZM266.541 46.47H262.669C262.691 47.0347 262.841 47.504 263.12 47.878C263.398 48.2447 263.838 48.428 264.44 48.428C264.799 48.428 265.089 48.3913 265.309 48.318C265.536 48.2373 265.752 48.1493 265.958 48.054L266.233 48.692C266.005 48.846 265.708 48.956 265.342 49.022C264.975 49.0953 264.682 49.132 264.462 49.132C263.574 49.132 262.903 48.8717 262.449 48.351C261.994 47.823 261.767 47.1447 261.767 46.316C261.774 45.5093 261.99 44.842 262.416 44.314C262.848 43.786 263.461 43.522 264.253 43.522C265.081 43.522 265.668 43.8153 266.013 44.402C266.365 44.9813 266.541 45.6707 266.541 46.47ZM265.683 45.876C265.624 45.3993 265.481 45.0107 265.254 44.71C265.026 44.4093 264.682 44.259 264.22 44.259C263.758 44.259 263.398 44.4093 263.142 44.71C262.892 45.0107 262.742 45.3993 262.691 45.876H265.683ZM272.55 49L271.164 44.941L269.877 49H269.019L267.226 43.797L268.106 43.665L269.459 47.757L270.746 43.665H271.626L272.979 47.757L274.266 43.665H275.146L273.408 49H272.55ZM279.01 49V41.52H281.529C282.68 41.52 283.513 41.8793 284.026 42.598C284.539 43.3167 284.796 44.1893 284.796 45.216C284.796 46.2867 284.51 47.185 283.938 47.911C283.373 48.637 282.545 49 281.452 49H279.01ZM281.562 42.268H279.879V48.274H281.463C282.204 48.274 282.801 48.0063 283.256 47.471C283.711 46.9357 283.938 46.1877 283.938 45.227C283.938 44.369 283.744 43.6613 283.355 43.104C282.966 42.5467 282.369 42.268 281.562 42.268ZM290.882 46.47H287.01C287.032 47.0347 287.183 47.504 287.461 47.878C287.74 48.2447 288.18 48.428 288.781 48.428C289.141 48.428 289.43 48.3913 289.65 48.318C289.878 48.2373 290.094 48.1493 290.299 48.054L290.574 48.692C290.347 48.846 290.05 48.956 289.683 49.022C289.317 49.0953 289.023 49.132 288.803 49.132C287.916 49.132 287.245 48.8717 286.79 48.351C286.336 47.823 286.108 47.1447 286.108 46.316C286.116 45.5093 286.332 44.842 286.757 44.314C287.19 43.786 287.802 43.522 288.594 43.522C289.423 43.522 290.01 43.8153 290.354 44.402C290.706 44.9813 290.882 45.6707 290.882 46.47ZM290.024 45.876C289.966 45.3993 289.823 45.0107 289.595 44.71C289.368 44.4093 289.023 44.259 288.561 44.259C288.099 44.259 287.74 44.4093 287.483 44.71C287.234 45.0107 287.084 45.3993 287.032 45.876H290.024ZM294.659 48.978C294.578 49.0147 294.461 49.055 294.307 49.099C294.16 49.143 294.006 49.165 293.845 49.165C293.39 49.165 293.024 49.033 292.745 48.769C292.474 48.505 292.338 48.12 292.338 47.614V44.413H291.579L291.568 43.753H292.338V42.4L293.218 42.147V43.753H294.186L294.472 44.413H293.218V47.493C293.218 47.7643 293.277 47.988 293.394 48.164C293.511 48.3327 293.706 48.417 293.977 48.417C294.058 48.417 294.146 48.406 294.241 48.384C294.336 48.3547 294.41 48.329 294.461 48.307L294.659 48.978ZM296.322 47.482C296.322 47.7093 296.399 47.9257 296.553 48.131C296.714 48.3363 296.971 48.439 297.323 48.439C297.631 48.439 297.913 48.362 298.17 48.208C298.427 48.054 298.647 47.8707 298.83 47.658V46.437H297.422C297.063 46.437 296.788 46.5433 296.597 46.756C296.414 46.9613 296.322 47.2033 296.322 47.482ZM295.86 43.995C296.065 43.8557 296.355 43.742 296.729 43.654C297.103 43.566 297.4 43.522 297.62 43.522C298.236 43.522 298.735 43.6907 299.116 44.028C299.505 44.358 299.699 44.7907 299.699 45.326V49H299.171L298.94 48.461C298.757 48.6297 298.518 48.7837 298.225 48.923C297.932 49.0623 297.638 49.132 297.345 49.132C296.729 49.132 296.271 48.978 295.97 48.67C295.669 48.3547 295.519 47.9587 295.519 47.482C295.519 46.954 295.695 46.5543 296.047 46.283C296.406 46.0043 296.872 45.865 297.444 45.865H298.819C298.819 45.425 298.749 45.051 298.61 44.743C298.471 44.435 298.152 44.281 297.653 44.281C297.294 44.281 296.997 44.3213 296.762 44.402C296.527 44.4827 296.311 44.567 296.113 44.655C296.076 44.545 296.036 44.435 295.992 44.325C295.948 44.215 295.904 44.105 295.86 43.995ZM301.81 42.609C301.641 42.609 301.502 42.554 301.392 42.444C301.282 42.3267 301.227 42.1837 301.227 42.015C301.22 41.8537 301.271 41.718 301.381 41.608C301.498 41.4907 301.641 41.432 301.81 41.432C301.971 41.432 302.111 41.4907 302.228 41.608C302.353 41.718 302.415 41.8537 302.415 42.015C302.415 42.1837 302.353 42.3267 302.228 42.444C302.111 42.554 301.971 42.609 301.81 42.609ZM301.381 49V43.665H302.261V49H301.381ZM304.002 49V41.355L304.871 41.234V49H304.002ZM309.648 44.633C309.472 44.545 309.27 44.4607 309.043 44.38C308.816 44.2993 308.544 44.259 308.229 44.259C307.906 44.259 307.646 44.325 307.448 44.457C307.257 44.589 307.162 44.7687 307.162 44.996C307.162 45.2013 307.272 45.3773 307.492 45.524C307.719 45.6633 308.009 45.7917 308.361 45.909C308.794 46.063 309.197 46.272 309.571 46.536C309.952 46.8 310.143 47.152 310.143 47.592C310.143 48.076 309.96 48.4573 309.593 48.736C309.234 49.0073 308.706 49.143 308.009 49.143C307.782 49.143 307.496 49.1027 307.151 49.022C306.806 48.9487 306.524 48.8387 306.304 48.692L306.568 48.032C306.773 48.1347 307.001 48.2227 307.25 48.296C307.507 48.3693 307.763 48.406 308.02 48.406C308.416 48.406 308.724 48.3437 308.944 48.219C309.164 48.0943 309.274 47.9037 309.274 47.647C309.274 47.4197 309.153 47.2217 308.911 47.053C308.669 46.877 308.368 46.7303 308.009 46.613C307.591 46.4737 307.195 46.283 306.821 46.041C306.454 45.7917 306.271 45.458 306.271 45.04C306.271 44.5633 306.447 44.193 306.799 43.929C307.158 43.6577 307.642 43.522 308.251 43.522C308.478 43.522 308.761 43.566 309.098 43.654C309.435 43.7347 309.707 43.8483 309.912 43.995L309.648 44.633Z" fill="black"/>
<path d="M69.1094 33.9531C74.7223 33.9531 79.2656 38.4956 79.2656 44.1094C79.2656 49.7223 74.7232 54.2656 69.1094 54.2656C63.4964 54.2656 58.9531 49.7232 58.9531 44.1094C58.9531 38.4964 63.4956 33.9531 69.1094 33.9531ZM69.1094 32C62.4215 32 57 37.4215 57 44.1094C57 50.7972 62.4215 56.2188 69.1094 56.2188C75.7972 56.2188 81.2188 50.7972 81.2188 44.1094C81.2188 37.4215 75.7972 32 69.1094 32ZM69.1094 34.7344C63.9317 34.7344 59.7344 38.9317 59.7344 44.1094C59.7344 49.2871 63.9317 53.4844 69.1094 53.4844C74.2871 53.4844 78.4844 49.2871 78.4844 44.1094C78.4844 38.9317 74.2871 34.7344 69.1094 34.7344ZM69.1094 36.8828C70.0802 36.8828 70.8672 37.6698 70.8672 38.6406C70.8672 39.6114 70.0802 40.3984 69.1094 40.3984C68.1386 40.3984 67.3516 39.6114 67.3516 38.6406C67.3516 37.6698 68.1386 36.8828 69.1094 36.8828ZM74.8584 41.6691C73.4565 42.0001 72.148 42.2916 70.8477 42.4409C70.8893 47.3737 71.4486 48.4493 72.0702 50.0396C72.2468 50.4917 72.0235 51.0014 71.5713 51.178C71.1191 51.3546 70.6095 51.1313 70.4329 50.6792C70.0078 49.5899 69.5986 48.695 69.3459 46.8438H68.8729C68.6207 48.6919 68.2121 49.5883 67.7859 50.6792C67.6094 51.1311 67.0999 51.3547 66.6475 51.178C66.1954 51.0014 65.972 50.4917 66.1486 50.0396C66.7694 48.4507 67.3295 47.3765 67.3711 42.4409C66.0709 42.2916 64.7624 42.0001 63.3604 41.6691C62.9404 41.5699 62.6804 41.1492 62.7795 40.7292C62.8787 40.3092 63.2994 40.0492 63.7194 40.1484C68.4404 41.2631 69.7879 41.2608 74.4995 40.1484C74.9193 40.0493 75.3402 40.3092 75.4394 40.7292C75.5384 41.1492 75.2784 41.57 74.8584 41.6691Z" fill="#487A6C"/>
</g>
<g filter="url(#filter1_d_421_1219)">
<rect x="52" y="91" width="295" height="66" rx="8" fill="white"/>
<path d="M94.246 129V119.48H97.102C98.1287 119.48 98.9967 119.713 99.706 120.18C100.425 120.637 100.784 121.407 100.784 122.49C100.775 123.563 100.387 124.347 99.622 124.842C98.8567 125.337 97.97 125.584 96.962 125.584H95.814V129H94.246ZM97.06 120.796H95.814V124.282H97.046C97.634 124.282 98.1193 124.147 98.502 123.876C98.8847 123.605 99.09 123.171 99.118 122.574C99.118 121.911 98.936 121.449 98.572 121.188C98.208 120.927 97.704 120.796 97.06 120.796ZM108.367 126.032H103.663C103.728 126.564 103.929 126.998 104.265 127.334C104.601 127.67 105.077 127.838 105.693 127.838C106.048 127.838 106.356 127.796 106.617 127.712C106.878 127.628 107.158 127.516 107.457 127.376C107.541 127.563 107.62 127.754 107.695 127.95C107.779 128.146 107.858 128.337 107.933 128.524C107.625 128.748 107.242 128.911 106.785 129.014C106.328 129.117 105.954 129.168 105.665 129.168C104.508 129.168 103.607 128.846 102.963 128.202C102.319 127.549 101.997 126.685 101.997 125.612C101.997 124.539 102.296 123.675 102.893 123.022C103.49 122.359 104.302 122.028 105.329 122.028C106.496 122.028 107.294 122.434 107.723 123.246C108.152 124.049 108.367 124.977 108.367 126.032ZM106.855 124.968C106.762 124.464 106.584 124.077 106.323 123.806C106.071 123.526 105.726 123.386 105.287 123.386C104.839 123.386 104.475 123.526 104.195 123.806C103.924 124.086 103.756 124.473 103.691 124.968H106.855ZM111.21 123.022C111.508 122.705 111.886 122.453 112.344 122.266C112.81 122.07 113.23 121.972 113.604 121.972C114.472 121.972 115.097 122.229 115.48 122.742C115.872 123.246 116.068 123.876 116.068 124.632V129H114.486V124.73C114.486 124.291 114.378 123.946 114.164 123.694C113.958 123.442 113.646 123.316 113.226 123.316C112.955 123.316 112.656 123.395 112.33 123.554C112.003 123.703 111.709 123.895 111.448 124.128V129H109.866V122.21H110.734L111.21 123.022ZM121.508 129V119.48H123.076V129H121.508ZM128.242 129.168C127.187 129.159 126.375 128.832 125.806 128.188C125.237 127.535 124.952 126.667 124.952 125.584C124.961 124.52 125.265 123.666 125.862 123.022C126.459 122.369 127.29 122.037 128.354 122.028C129.446 122.028 130.286 122.364 130.874 123.036C131.462 123.708 131.756 124.581 131.756 125.654C131.747 126.718 131.425 127.572 130.79 128.216C130.155 128.851 129.306 129.168 128.242 129.168ZM130.132 125.654C130.132 124.973 129.987 124.427 129.698 124.016C129.418 123.596 128.984 123.386 128.396 123.386C127.808 123.386 127.36 123.577 127.052 123.96C126.744 124.333 126.59 124.87 126.59 125.57C126.59 126.279 126.721 126.835 126.982 127.236C127.243 127.628 127.668 127.824 128.256 127.824C128.844 127.824 129.301 127.642 129.628 127.278C129.955 126.914 130.123 126.373 130.132 125.654ZM134.965 127.334C135.17 127.483 135.394 127.605 135.637 127.698C135.88 127.782 136.108 127.824 136.323 127.824C136.986 127.824 137.448 127.591 137.709 127.124C137.98 126.648 138.115 126.135 138.115 125.584C138.115 124.968 137.989 124.436 137.737 123.988C137.494 123.54 137.023 123.316 136.323 123.316C136.108 123.316 135.88 123.363 135.637 123.456C135.394 123.549 135.17 123.671 134.965 123.82V127.334ZM133.383 132.066V122.21H134.223L134.573 122.756C134.872 122.523 135.217 122.336 135.609 122.196C136.01 122.047 136.37 121.972 136.687 121.972C137.686 121.972 138.442 122.317 138.955 123.008C139.478 123.689 139.739 124.543 139.739 125.57C139.739 126.597 139.473 127.455 138.941 128.146C138.418 128.827 137.667 129.168 136.687 129.168C136.426 129.168 136.141 129.121 135.833 129.028C135.525 128.935 135.236 128.804 134.965 128.636V131.912L133.383 132.066ZM147.359 126.032H142.655C142.72 126.564 142.921 126.998 143.257 127.334C143.593 127.67 144.069 127.838 144.685 127.838C145.04 127.838 145.348 127.796 145.609 127.712C145.87 127.628 146.15 127.516 146.449 127.376C146.533 127.563 146.612 127.754 146.687 127.95C146.771 128.146 146.85 128.337 146.925 128.524C146.617 128.748 146.234 128.911 145.777 129.014C145.32 129.117 144.946 129.168 144.657 129.168C143.5 129.168 142.599 128.846 141.955 128.202C141.311 127.549 140.989 126.685 140.989 125.612C140.989 124.539 141.288 123.675 141.885 123.022C142.482 122.359 143.294 122.028 144.321 122.028C145.488 122.028 146.286 122.434 146.715 123.246C147.144 124.049 147.359 124.977 147.359 126.032ZM145.847 124.968C145.754 124.464 145.576 124.077 145.315 123.806C145.063 123.526 144.718 123.386 144.279 123.386C143.831 123.386 143.467 123.526 143.187 123.806C142.916 124.086 142.748 124.473 142.683 124.968H145.847Z" fill="#487A6C"/>
<path d="M342 98.6604L341.274 98L336.5 102.34L331.726 98L331 98.6604L335.774 103L331 107.34L331.726 108L336.5 103.66L341.274 108L342 107.34L337.226 103L342 98.6604Z" fill="#666666"/>
<path opacity="0.3" d="M95.64 137.631C96.3807 137.631 96.9343 137.814 97.301 138.181C97.675 138.548 97.862 138.969 97.862 139.446C97.862 139.827 97.7447 140.165 97.51 140.458C97.2827 140.744 97.0113 140.938 96.696 141.041C97.0553 141.129 97.3597 141.331 97.609 141.646C97.8657 141.961 97.994 142.343 97.994 142.79C97.994 143.362 97.7667 143.846 97.312 144.242C96.8573 144.638 96.245 144.836 95.475 144.836C95.0717 144.836 94.6757 144.77 94.287 144.638C93.9057 144.513 93.5793 144.378 93.308 144.231L93.77 143.637C94.034 143.798 94.2943 143.919 94.551 144C94.8077 144.088 95.1267 144.132 95.508 144.132C95.9187 144.132 96.289 144.018 96.619 143.791C96.9563 143.556 97.125 143.23 97.125 142.812C97.125 142.372 96.9637 142.024 96.641 141.767C96.3257 141.51 95.8087 141.382 95.09 141.382H94.826L94.694 140.733H95.156C95.728 140.733 96.1753 140.619 96.498 140.392C96.828 140.157 96.993 139.846 96.993 139.457C96.993 139.164 96.8683 138.907 96.619 138.687C96.3697 138.46 96.0323 138.346 95.607 138.346C95.2257 138.346 94.8883 138.408 94.595 138.533C94.3017 138.65 94.0633 138.768 93.88 138.885L93.451 138.313C93.759 138.115 94.089 137.954 94.441 137.829C94.8003 137.697 95.2 137.631 95.64 137.631ZM102.951 136.234L99.5846 144.044L98.7486 144L102.104 136.19L102.951 136.234ZM106.785 144H103.804L103.705 143.34H104.882V138.819C104.757 138.907 104.629 138.995 104.497 139.083C104.372 139.164 104.247 139.244 104.123 139.325C104.049 139.23 103.98 139.131 103.914 139.028C103.848 138.925 103.782 138.826 103.716 138.731L105.179 137.774H105.762V143.34H106.697C106.711 143.457 106.726 143.571 106.741 143.681C106.763 143.784 106.777 143.89 106.785 144ZM108.022 140.843C108.022 139.846 108.271 139.061 108.77 138.489C109.269 137.917 109.918 137.631 110.717 137.631C111.516 137.631 112.162 137.91 112.653 138.467C113.144 139.017 113.39 139.805 113.39 140.832C113.39 141.829 113.137 142.632 112.631 143.241C112.125 143.842 111.487 144.143 110.717 144.143C109.932 144.143 109.287 143.85 108.781 143.263C108.275 142.676 108.022 141.87 108.022 140.843ZM108.891 140.81C108.891 141.624 109.063 142.258 109.408 142.713C109.753 143.168 110.189 143.395 110.717 143.395C111.223 143.395 111.652 143.168 112.004 142.713C112.356 142.258 112.532 141.642 112.532 140.865C112.532 140.058 112.36 139.442 112.015 139.017C111.678 138.584 111.245 138.368 110.717 138.368C110.196 138.368 109.76 138.584 109.408 139.017C109.063 139.442 108.891 140.04 108.891 140.81ZM118.333 136.234L114.967 144.044L114.131 144L117.486 136.19L118.333 136.234ZM120.892 137.631C121.691 137.631 122.248 137.836 122.564 138.247C122.886 138.658 123.048 139.079 123.048 139.512C123.048 139.93 122.912 140.319 122.641 140.678C122.369 141.03 121.97 141.437 121.442 141.899L119.825 143.318H123.158L123.268 144H118.736V143.351L120.969 141.327C121.431 140.909 121.75 140.575 121.926 140.326C122.102 140.069 122.19 139.798 122.19 139.512C122.19 139.175 122.08 138.896 121.86 138.676C121.64 138.456 121.31 138.346 120.87 138.346C120.525 138.346 120.195 138.434 119.88 138.61C119.572 138.786 119.414 138.878 119.407 138.885L119.022 138.258C119.08 138.221 119.278 138.108 119.616 137.917C119.96 137.726 120.386 137.631 120.892 137.631ZM124.479 140.843C124.479 139.846 124.728 139.061 125.227 138.489C125.726 137.917 126.375 137.631 127.174 137.631C127.973 137.631 128.619 137.91 129.11 138.467C129.601 139.017 129.847 139.805 129.847 140.832C129.847 141.829 129.594 142.632 129.088 143.241C128.582 143.842 127.944 144.143 127.174 144.143C126.389 144.143 125.744 143.85 125.238 143.263C124.732 142.676 124.479 141.87 124.479 140.843ZM125.348 140.81C125.348 141.624 125.52 142.258 125.865 142.713C126.21 143.168 126.646 143.395 127.174 143.395C127.68 143.395 128.109 143.168 128.461 142.713C128.813 142.258 128.989 141.642 128.989 140.865C128.989 140.058 128.817 139.442 128.472 139.017C128.135 138.584 127.702 138.368 127.174 138.368C126.653 138.368 126.217 138.584 125.865 139.017C125.52 139.442 125.348 140.04 125.348 140.81ZM133.019 137.631C133.819 137.631 134.376 137.836 134.691 138.247C135.014 138.658 135.175 139.079 135.175 139.512C135.175 139.93 135.04 140.319 134.768 140.678C134.497 141.03 134.097 141.437 133.569 141.899L131.952 143.318H135.285L135.395 144H130.863V143.351L133.096 141.327C133.558 140.909 133.877 140.575 134.053 140.326C134.229 140.069 134.317 139.798 134.317 139.512C134.317 139.175 134.207 138.896 133.987 138.676C133.767 138.456 133.437 138.346 132.997 138.346C132.653 138.346 132.323 138.434 132.007 138.61C131.699 138.786 131.542 138.878 131.534 138.885L131.149 138.258C131.208 138.221 131.406 138.108 131.743 137.917C132.088 137.726 132.513 137.631 133.019 137.631ZM138.598 137.631C139.339 137.631 139.892 137.814 140.259 138.181C140.633 138.548 140.82 138.969 140.82 139.446C140.82 139.827 140.703 140.165 140.468 140.458C140.241 140.744 139.969 140.938 139.654 141.041C140.013 141.129 140.318 141.331 140.567 141.646C140.824 141.961 140.952 142.343 140.952 142.79C140.952 143.362 140.725 143.846 140.27 144.242C139.815 144.638 139.203 144.836 138.433 144.836C138.03 144.836 137.634 144.77 137.245 144.638C136.864 144.513 136.537 144.378 136.266 144.231L136.728 143.637C136.992 143.798 137.252 143.919 137.509 144C137.766 144.088 138.085 144.132 138.466 144.132C138.877 144.132 139.247 144.018 139.577 143.791C139.914 143.556 140.083 143.23 140.083 142.812C140.083 142.372 139.922 142.024 139.599 141.767C139.284 141.51 138.767 141.382 138.048 141.382H137.784L137.652 140.733H138.114C138.686 140.733 139.133 140.619 139.456 140.392C139.786 140.157 139.951 139.846 139.951 139.457C139.951 139.164 139.826 138.907 139.577 138.687C139.328 138.46 138.99 138.346 138.565 138.346C138.184 138.346 137.846 138.408 137.553 138.533C137.26 138.65 137.021 138.768 136.838 138.885L136.409 138.313C136.717 138.115 137.047 137.954 137.399 137.829C137.758 137.697 138.158 137.631 138.598 137.631ZM146.737 137.631C147.537 137.631 148.094 137.836 148.409 138.247C148.732 138.658 148.893 139.079 148.893 139.512C148.893 139.93 148.758 140.319 148.486 140.678C148.215 141.03 147.815 141.437 147.287 141.899L145.67 143.318H149.003L149.113 144H144.581V143.351L146.814 141.327C147.276 140.909 147.595 140.575 147.771 140.326C147.947 140.069 148.035 139.798 148.035 139.512C148.035 139.175 147.925 138.896 147.705 138.676C147.485 138.456 147.155 138.346 146.715 138.346C146.371 138.346 146.041 138.434 145.725 138.61C145.417 138.786 145.26 138.878 145.252 138.885L144.867 138.258C144.926 138.221 145.124 138.108 145.461 137.917C145.806 137.726 146.231 137.631 146.737 137.631ZM150.424 138.973C150.592 138.973 150.732 139.035 150.842 139.16C150.959 139.277 151.018 139.417 151.018 139.578C151.018 139.739 150.959 139.879 150.842 139.996C150.732 140.113 150.592 140.172 150.424 140.172C150.262 140.172 150.123 140.113 150.006 139.996C149.888 139.879 149.83 139.739 149.83 139.578C149.83 139.417 149.888 139.277 150.006 139.16C150.123 139.035 150.262 138.973 150.424 138.973ZM150.424 142.515C150.592 142.515 150.732 142.574 150.842 142.691C150.959 142.801 151.018 142.94 151.018 143.109C151.018 143.278 150.959 143.421 150.842 143.538C150.732 143.648 150.592 143.703 150.424 143.703C150.262 143.703 150.123 143.648 150.006 143.538C149.888 143.421 149.83 143.278 149.83 143.109C149.83 142.94 149.888 142.801 150.006 142.691C150.123 142.574 150.262 142.515 150.424 142.515ZM154.953 144H151.972L151.873 143.34H153.05V138.819C152.925 138.907 152.797 138.995 152.665 139.083C152.54 139.164 152.415 139.244 152.291 139.325C152.217 139.23 152.148 139.131 152.082 139.028C152.016 138.925 151.95 138.826 151.884 138.731L153.347 137.774H153.93V143.34H154.865C154.879 143.457 154.894 143.571 154.909 143.681C154.931 143.784 154.945 143.89 154.953 144ZM161.008 141.877C161.008 142.464 160.803 142.988 160.392 143.45C159.981 143.912 159.446 144.143 158.786 144.143C158.023 144.143 157.4 143.886 156.916 143.373C156.432 142.86 156.19 142.112 156.19 141.129C156.19 140.322 156.487 139.486 157.081 138.621C157.675 137.748 158.445 137.217 159.391 137.026L159.754 137.565C159.101 137.719 158.54 138.064 158.071 138.599C157.602 139.127 157.297 139.71 157.158 140.348C157.356 140.172 157.594 140.018 157.873 139.886C158.159 139.754 158.456 139.688 158.764 139.688C159.453 139.688 160 139.912 160.403 140.359C160.806 140.799 161.008 141.305 161.008 141.877ZM160.183 141.932C160.183 141.529 160.055 141.166 159.798 140.843C159.541 140.52 159.193 140.359 158.753 140.359C158.357 140.359 158.009 140.462 157.708 140.667C157.415 140.865 157.198 141.089 157.059 141.338C157.081 141.961 157.231 142.464 157.51 142.845C157.789 143.226 158.203 143.417 158.753 143.417C159.186 143.417 159.53 143.267 159.787 142.966C160.051 142.658 160.183 142.313 160.183 141.932ZM165.235 144V136.52H167.27C168.054 136.52 168.711 136.696 169.239 137.048C169.767 137.393 170.031 137.979 170.031 138.808C170.023 139.629 169.737 140.231 169.173 140.612C168.608 140.986 167.933 141.173 167.149 141.173H166.093V144H165.235ZM167.27 137.257H166.093V140.436H167.193C167.735 140.436 168.19 140.315 168.557 140.073C168.931 139.824 169.121 139.413 169.129 138.841C169.129 138.24 168.96 137.825 168.623 137.598C168.293 137.371 167.842 137.257 167.27 137.257ZM174.739 141.536L172.517 138.346V144H171.659V136.52H172.165L174.86 140.337L177.456 136.52H178.006V144H177.126V138.368L175.036 141.481L174.739 141.536Z" fill="black"/>
<path d="M255.926 133L253.066 125.663L253.913 125.52L256.344 131.867L258.698 125.52H259.545L256.773 133H255.926ZM260.915 126.609C260.747 126.609 260.607 126.554 260.497 126.444C260.387 126.327 260.332 126.184 260.332 126.015C260.325 125.854 260.376 125.718 260.486 125.608C260.604 125.491 260.747 125.432 260.915 125.432C261.077 125.432 261.216 125.491 261.333 125.608C261.458 125.718 261.52 125.854 261.52 126.015C261.52 126.184 261.458 126.327 261.333 126.444C261.216 126.554 261.077 126.609 260.915 126.609ZM260.486 133V127.665H261.366V133H260.486ZM267.541 130.47H263.669C263.691 131.035 263.841 131.504 264.12 131.878C264.398 132.245 264.838 132.428 265.44 132.428C265.799 132.428 266.089 132.391 266.309 132.318C266.536 132.237 266.752 132.149 266.958 132.054L267.233 132.692C267.005 132.846 266.708 132.956 266.342 133.022C265.975 133.095 265.682 133.132 265.462 133.132C264.574 133.132 263.903 132.872 263.449 132.351C262.994 131.823 262.767 131.145 262.767 130.316C262.774 129.509 262.99 128.842 263.416 128.314C263.848 127.786 264.461 127.522 265.253 127.522C266.081 127.522 266.668 127.815 267.013 128.402C267.365 128.981 267.541 129.671 267.541 130.47ZM266.683 129.876C266.624 129.399 266.481 129.011 266.254 128.71C266.026 128.409 265.682 128.259 265.22 128.259C264.758 128.259 264.398 128.409 264.142 128.71C263.892 129.011 263.742 129.399 263.691 129.876H266.683ZM273.55 133L272.164 128.941L270.877 133H270.019L268.226 127.797L269.106 127.665L270.459 131.757L271.746 127.665H272.626L273.979 131.757L275.266 127.665H276.146L274.408 133H273.55ZM280.01 133V125.52H282.529C283.68 125.52 284.513 125.879 285.026 126.598C285.539 127.317 285.796 128.189 285.796 129.216C285.796 130.287 285.51 131.185 284.938 131.911C284.373 132.637 283.545 133 282.452 133H280.01ZM282.562 126.268H280.879V132.274H282.463C283.204 132.274 283.801 132.006 284.256 131.471C284.711 130.936 284.938 130.188 284.938 129.227C284.938 128.369 284.744 127.661 284.355 127.104C283.966 126.547 283.369 126.268 282.562 126.268ZM291.882 130.47H288.01C288.032 131.035 288.183 131.504 288.461 131.878C288.74 132.245 289.18 132.428 289.781 132.428C290.141 132.428 290.43 132.391 290.65 132.318C290.878 132.237 291.094 132.149 291.299 132.054L291.574 132.692C291.347 132.846 291.05 132.956 290.683 133.022C290.317 133.095 290.023 133.132 289.803 133.132C288.916 133.132 288.245 132.872 287.79 132.351C287.336 131.823 287.108 131.145 287.108 130.316C287.116 129.509 287.332 128.842 287.757 128.314C288.19 127.786 288.802 127.522 289.594 127.522C290.423 127.522 291.01 127.815 291.354 128.402C291.706 128.981 291.882 129.671 291.882 130.47ZM291.024 129.876C290.966 129.399 290.823 129.011 290.595 128.71C290.368 128.409 290.023 128.259 289.561 128.259C289.099 128.259 288.74 128.409 288.483 128.71C288.234 129.011 288.084 129.399 288.032 129.876H291.024ZM295.659 132.978C295.578 133.015 295.461 133.055 295.307 133.099C295.16 133.143 295.006 133.165 294.845 133.165C294.39 133.165 294.024 133.033 293.745 132.769C293.474 132.505 293.338 132.12 293.338 131.614V128.413H292.579L292.568 127.753H293.338V126.4L294.218 126.147V127.753H295.186L295.472 128.413H294.218V131.493C294.218 131.764 294.277 131.988 294.394 132.164C294.511 132.333 294.706 132.417 294.977 132.417C295.058 132.417 295.146 132.406 295.241 132.384C295.336 132.355 295.41 132.329 295.461 132.307L295.659 132.978ZM297.322 131.482C297.322 131.709 297.399 131.926 297.553 132.131C297.714 132.336 297.971 132.439 298.323 132.439C298.631 132.439 298.913 132.362 299.17 132.208C299.427 132.054 299.647 131.871 299.83 131.658V130.437H298.422C298.063 130.437 297.788 130.543 297.597 130.756C297.414 130.961 297.322 131.203 297.322 131.482ZM296.86 127.995C297.065 127.856 297.355 127.742 297.729 127.654C298.103 127.566 298.4 127.522 298.62 127.522C299.236 127.522 299.735 127.691 300.116 128.028C300.505 128.358 300.699 128.791 300.699 129.326V133H300.171L299.94 132.461C299.757 132.63 299.518 132.784 299.225 132.923C298.932 133.062 298.638 133.132 298.345 133.132C297.729 133.132 297.271 132.978 296.97 132.67C296.669 132.355 296.519 131.959 296.519 131.482C296.519 130.954 296.695 130.554 297.047 130.283C297.406 130.004 297.872 129.865 298.444 129.865H299.819C299.819 129.425 299.749 129.051 299.61 128.743C299.471 128.435 299.152 128.281 298.653 128.281C298.294 128.281 297.997 128.321 297.762 128.402C297.527 128.483 297.311 128.567 297.113 128.655C297.076 128.545 297.036 128.435 296.992 128.325C296.948 128.215 296.904 128.105 296.86 127.995ZM302.81 126.609C302.641 126.609 302.502 126.554 302.392 126.444C302.282 126.327 302.227 126.184 302.227 126.015C302.22 125.854 302.271 125.718 302.381 125.608C302.498 125.491 302.641 125.432 302.81 125.432C302.971 125.432 303.111 125.491 303.228 125.608C303.353 125.718 303.415 125.854 303.415 126.015C303.415 126.184 303.353 126.327 303.228 126.444C303.111 126.554 302.971 126.609 302.81 126.609ZM302.381 133V127.665H303.261V133H302.381ZM305.002 133V125.355L305.871 125.234V133H305.002ZM310.648 128.633C310.472 128.545 310.27 128.461 310.043 128.38C309.816 128.299 309.544 128.259 309.229 128.259C308.906 128.259 308.646 128.325 308.448 128.457C308.257 128.589 308.162 128.769 308.162 128.996C308.162 129.201 308.272 129.377 308.492 129.524C308.719 129.663 309.009 129.792 309.361 129.909C309.794 130.063 310.197 130.272 310.571 130.536C310.952 130.8 311.143 131.152 311.143 131.592C311.143 132.076 310.96 132.457 310.593 132.736C310.234 133.007 309.706 133.143 309.009 133.143C308.782 133.143 308.496 133.103 308.151 133.022C307.806 132.949 307.524 132.839 307.304 132.692L307.568 132.032C307.773 132.135 308.001 132.223 308.25 132.296C308.507 132.369 308.763 132.406 309.02 132.406C309.416 132.406 309.724 132.344 309.944 132.219C310.164 132.094 310.274 131.904 310.274 131.647C310.274 131.42 310.153 131.222 309.911 131.053C309.669 130.877 309.368 130.73 309.009 130.613C308.591 130.474 308.195 130.283 307.821 130.041C307.454 129.792 307.271 129.458 307.271 129.04C307.271 128.563 307.447 128.193 307.799 127.929C308.158 127.658 308.642 127.522 309.251 127.522C309.478 127.522 309.761 127.566 310.098 127.654C310.435 127.735 310.707 127.848 310.912 127.995L310.648 128.633Z" fill="black"/>
<path d="M82.7186 131.098C83.5198 132.486 82.5142 134.222 80.9141 134.222H60.0857C58.4825 134.222 57.4816 132.484 58.2811 131.098L68.6955 113.041C69.497 111.652 71.5045 111.654 72.3046 113.041L82.7186 131.098ZM70.5 127.365C69.3974 127.365 68.5035 128.258 68.5035 129.361C68.5035 130.464 69.3974 131.358 70.5 131.358C71.6027 131.358 72.4965 130.464 72.4965 129.361C72.4965 128.258 71.6027 127.365 70.5 127.365ZM68.6045 120.188L68.9264 126.091C68.9415 126.367 69.1699 126.583 69.4465 126.583H71.5535C71.8301 126.583 72.0585 126.367 72.0736 126.091L72.3955 120.188C72.4118 119.89 72.1743 119.639 71.8755 119.639H69.1245C68.8257 119.639 68.5882 119.89 68.6045 120.188Z" fill="#487A6C"/>
</g>
<g filter="url(#filter2_d_421_1219)">
<rect x="52" y="175" width="295" height="66" rx="8" fill="white"/>
<path d="M94.246 213V203.48H97.62C99.104 203.48 100.191 203.928 100.882 204.824C101.582 205.711 101.932 206.831 101.932 208.184C101.932 209.621 101.554 210.783 100.798 211.67C100.051 212.547 98.9827 212.991 97.592 213H94.246ZM97.69 204.824H95.814V211.684H97.578C98.3993 211.684 99.062 211.404 99.566 210.844C100.07 210.275 100.322 209.393 100.322 208.198C100.322 207.171 100.107 206.355 99.678 205.748C99.258 205.132 98.5953 204.824 97.69 204.824ZM104.861 211.012C104.861 211.236 104.949 211.446 105.127 211.642C105.304 211.829 105.551 211.922 105.869 211.922C106.158 211.922 106.443 211.852 106.723 211.712C107.012 211.563 107.273 211.371 107.507 211.138V209.934H105.995C105.621 209.934 105.337 210.041 105.141 210.256C104.954 210.471 104.861 210.723 104.861 211.012ZM103.867 206.644C104.128 206.467 104.515 206.322 105.029 206.21C105.542 206.089 105.943 206.028 106.233 206.028C107.035 206.028 107.712 206.257 108.263 206.714C108.813 207.171 109.089 207.755 109.089 208.464V213H108.235C108.169 212.907 108.104 212.809 108.039 212.706C107.973 212.594 107.908 212.491 107.843 212.398C107.6 212.603 107.301 212.785 106.947 212.944C106.592 213.093 106.242 213.168 105.897 213.168C105.085 213.168 104.478 212.967 104.077 212.566C103.685 212.165 103.489 211.647 103.489 211.012C103.489 210.321 103.722 209.794 104.189 209.43C104.655 209.057 105.267 208.87 106.023 208.87H107.493C107.465 208.469 107.362 208.137 107.185 207.876C107.007 207.605 106.699 207.47 106.261 207.47C105.906 207.47 105.551 207.517 105.197 207.61C104.851 207.703 104.553 207.811 104.301 207.932C104.226 207.717 104.151 207.503 104.077 207.288C104.002 207.073 103.932 206.859 103.867 206.644ZM112.249 207.022C112.547 206.705 112.925 206.453 113.383 206.266C113.849 206.07 114.269 205.972 114.643 205.972C115.511 205.972 116.136 206.229 116.519 206.742C116.911 207.246 117.107 207.876 117.107 208.632V213H115.525V208.73C115.525 208.291 115.417 207.946 115.203 207.694C114.997 207.442 114.685 207.316 114.265 207.316C113.994 207.316 113.695 207.395 113.369 207.554C113.042 207.703 112.748 207.895 112.487 208.128V213H110.905V206.21H111.773L112.249 207.022ZM120.274 207.022C120.573 206.705 120.951 206.453 121.408 206.266C121.875 206.07 122.295 205.972 122.668 205.972C123.536 205.972 124.162 206.229 124.544 206.742C124.936 207.246 125.132 207.876 125.132 208.632V213H123.55V208.73C123.55 208.291 123.443 207.946 123.228 207.694C123.023 207.442 122.71 207.316 122.29 207.316C122.02 207.316 121.721 207.395 121.394 207.554C121.068 207.703 120.774 207.895 120.512 208.128V213H118.93V206.21H119.798L120.274 207.022ZM128.286 213.588L128.636 212.664L126.158 206.434L127.768 206.21L129.504 210.704L131.142 206.21H132.78L130.316 212.594L129.756 214.064C129.56 214.568 129.219 215.002 128.734 215.366C128.248 215.73 127.726 215.973 127.166 216.094L126.62 214.834C126.956 214.685 127.287 214.517 127.614 214.33C127.94 214.153 128.164 213.905 128.286 213.588ZM140.669 203.48C141.611 203.48 142.381 203.676 142.979 204.068C143.576 204.46 143.875 205.137 143.875 206.098C143.875 206.481 143.781 206.821 143.595 207.12C143.417 207.409 143.184 207.657 142.895 207.862C143.352 208.067 143.73 208.366 144.029 208.758C144.327 209.141 144.477 209.635 144.477 210.242C144.477 211.157 144.159 211.847 143.525 212.314C142.89 212.771 142.069 213 141.061 213H137.463V203.48H140.669ZM140.473 204.796H139.031V207.442H140.361C140.921 207.442 141.369 207.344 141.705 207.148C142.041 206.943 142.209 206.602 142.209 206.126C142.209 205.603 142.05 205.253 141.733 205.076C141.425 204.889 141.005 204.796 140.473 204.796ZM141.103 208.73H139.031V211.698H140.963C141.513 211.698 141.961 211.581 142.307 211.348C142.661 211.115 142.839 210.751 142.839 210.256C142.839 209.752 142.68 209.374 142.363 209.122C142.045 208.861 141.625 208.73 141.103 208.73ZM149.064 213.168C148.01 213.159 147.198 212.832 146.628 212.188C146.059 211.535 145.774 210.667 145.774 209.584C145.784 208.52 146.087 207.666 146.684 207.022C147.282 206.369 148.112 206.037 149.176 206.028C150.268 206.028 151.108 206.364 151.696 207.036C152.284 207.708 152.578 208.581 152.578 209.654C152.569 210.718 152.247 211.572 151.612 212.216C150.978 212.851 150.128 213.168 149.064 213.168ZM150.954 209.654C150.954 208.973 150.81 208.427 150.52 208.016C150.24 207.596 149.806 207.386 149.218 207.386C148.63 207.386 148.182 207.577 147.874 207.96C147.566 208.333 147.412 208.87 147.412 209.57C147.412 210.279 147.543 210.835 147.804 211.236C148.066 211.628 148.49 211.824 149.078 211.824C149.666 211.824 150.124 211.642 150.45 211.278C150.777 210.914 150.945 210.373 150.954 209.654ZM154.205 213V203.27L155.787 203.116V206.518C156.058 206.35 156.347 206.219 156.655 206.126C156.963 206.023 157.248 205.972 157.509 205.972C158.508 205.972 159.264 206.317 159.777 207.008C160.3 207.689 160.561 208.543 160.561 209.57C160.561 210.597 160.295 211.455 159.763 212.146C159.241 212.827 158.489 213.168 157.509 213.168C157.211 213.168 156.861 213.103 156.459 212.972C156.067 212.841 155.727 212.659 155.437 212.426L155.045 213H154.205ZM155.787 211.334C155.993 211.483 156.217 211.605 156.459 211.698C156.702 211.782 156.931 211.824 157.145 211.824C157.808 211.824 158.27 211.591 158.531 211.124C158.802 210.648 158.937 210.135 158.937 209.584C158.937 208.968 158.811 208.436 158.559 207.988C158.317 207.54 157.845 207.316 157.145 207.316C156.931 207.316 156.702 207.363 156.459 207.456C156.217 207.549 155.993 207.671 155.787 207.82V211.334Z" fill="#487A6C"/>
<path d="M342 182.66L341.274 182L336.5 186.34L331.726 182L331 182.66L335.774 187L331 191.34L331.726 192L336.5 187.66L341.274 192L342 191.34L337.226 187L342 182.66Z" fill="#666666"/>
<path opacity="0.3" d="M95.64 221.631C96.3807 221.631 96.9343 221.814 97.301 222.181C97.675 222.548 97.862 222.969 97.862 223.446C97.862 223.827 97.7447 224.165 97.51 224.458C97.2827 224.744 97.0113 224.938 96.696 225.041C97.0553 225.129 97.3597 225.331 97.609 225.646C97.8657 225.961 97.994 226.343 97.994 226.79C97.994 227.362 97.7667 227.846 97.312 228.242C96.8573 228.638 96.245 228.836 95.475 228.836C95.0717 228.836 94.6757 228.77 94.287 228.638C93.9057 228.513 93.5793 228.378 93.308 228.231L93.77 227.637C94.034 227.798 94.2943 227.919 94.551 228C94.8077 228.088 95.1267 228.132 95.508 228.132C95.9187 228.132 96.289 228.018 96.619 227.791C96.9563 227.556 97.125 227.23 97.125 226.812C97.125 226.372 96.9637 226.024 96.641 225.767C96.3257 225.51 95.8087 225.382 95.09 225.382H94.826L94.694 224.733H95.156C95.728 224.733 96.1753 224.619 96.498 224.392C96.828 224.157 96.993 223.846 96.993 223.457C96.993 223.164 96.8683 222.907 96.619 222.687C96.3697 222.46 96.0323 222.346 95.607 222.346C95.2257 222.346 94.8883 222.408 94.595 222.533C94.3017 222.65 94.0633 222.768 93.88 222.885L93.451 222.313C93.759 222.115 94.089 221.954 94.441 221.829C94.8003 221.697 95.2 221.631 95.64 221.631ZM102.951 220.234L99.5846 228.044L98.7486 228L102.104 220.19L102.951 220.234ZM106.785 228H103.804L103.705 227.34H104.882V222.819C104.757 222.907 104.629 222.995 104.497 223.083C104.372 223.164 104.247 223.244 104.123 223.325C104.049 223.23 103.98 223.131 103.914 223.028C103.848 222.925 103.782 222.826 103.716 222.731L105.179 221.774H105.762V227.34H106.697C106.711 227.457 106.726 227.571 106.741 227.681C106.763 227.784 106.777 227.89 106.785 228ZM108.022 224.843C108.022 223.846 108.271 223.061 108.77 222.489C109.269 221.917 109.918 221.631 110.717 221.631C111.516 221.631 112.162 221.91 112.653 222.467C113.144 223.017 113.39 223.805 113.39 224.832C113.39 225.829 113.137 226.632 112.631 227.241C112.125 227.842 111.487 228.143 110.717 228.143C109.932 228.143 109.287 227.85 108.781 227.263C108.275 226.676 108.022 225.87 108.022 224.843ZM108.891 224.81C108.891 225.624 109.063 226.258 109.408 226.713C109.753 227.168 110.189 227.395 110.717 227.395C111.223 227.395 111.652 227.168 112.004 226.713C112.356 226.258 112.532 225.642 112.532 224.865C112.532 224.058 112.36 223.442 112.015 223.017C111.678 222.584 111.245 222.368 110.717 222.368C110.196 222.368 109.76 222.584 109.408 223.017C109.063 223.442 108.891 224.04 108.891 224.81ZM118.333 220.234L114.967 228.044L114.131 228L117.486 220.19L118.333 220.234ZM120.892 221.631C121.691 221.631 122.248 221.836 122.564 222.247C122.886 222.658 123.048 223.079 123.048 223.512C123.048 223.93 122.912 224.319 122.641 224.678C122.369 225.03 121.97 225.437 121.442 225.899L119.825 227.318H123.158L123.268 228H118.736V227.351L120.969 225.327C121.431 224.909 121.75 224.575 121.926 224.326C122.102 224.069 122.19 223.798 122.19 223.512C122.19 223.175 122.08 222.896 121.86 222.676C121.64 222.456 121.31 222.346 120.87 222.346C120.525 222.346 120.195 222.434 119.88 222.61C119.572 222.786 119.414 222.878 119.407 222.885L119.022 222.258C119.08 222.221 119.278 222.108 119.616 221.917C119.96 221.726 120.386 221.631 120.892 221.631ZM124.479 224.843C124.479 223.846 124.728 223.061 125.227 222.489C125.726 221.917 126.375 221.631 127.174 221.631C127.973 221.631 128.619 221.91 129.11 222.467C129.601 223.017 129.847 223.805 129.847 224.832C129.847 225.829 129.594 226.632 129.088 227.241C128.582 227.842 127.944 228.143 127.174 228.143C126.389 228.143 125.744 227.85 125.238 227.263C124.732 226.676 124.479 225.87 124.479 224.843ZM125.348 224.81C125.348 225.624 125.52 226.258 125.865 226.713C126.21 227.168 126.646 227.395 127.174 227.395C127.68 227.395 128.109 227.168 128.461 226.713C128.813 226.258 128.989 225.642 128.989 224.865C128.989 224.058 128.817 223.442 128.472 223.017C128.135 222.584 127.702 222.368 127.174 222.368C126.653 222.368 126.217 222.584 125.865 223.017C125.52 223.442 125.348 224.04 125.348 224.81ZM133.019 221.631C133.819 221.631 134.376 221.836 134.691 222.247C135.014 222.658 135.175 223.079 135.175 223.512C135.175 223.93 135.04 224.319 134.768 224.678C134.497 225.03 134.097 225.437 133.569 225.899L131.952 227.318H135.285L135.395 228H130.863V227.351L133.096 225.327C133.558 224.909 133.877 224.575 134.053 224.326C134.229 224.069 134.317 223.798 134.317 223.512C134.317 223.175 134.207 222.896 133.987 222.676C133.767 222.456 133.437 222.346 132.997 222.346C132.653 222.346 132.323 222.434 132.007 222.61C131.699 222.786 131.542 222.878 131.534 222.885L131.149 222.258C131.208 222.221 131.406 222.108 131.743 221.917C132.088 221.726 132.513 221.631 133.019 221.631ZM138.598 221.631C139.339 221.631 139.892 221.814 140.259 222.181C140.633 222.548 140.82 222.969 140.82 223.446C140.82 223.827 140.703 224.165 140.468 224.458C140.241 224.744 139.969 224.938 139.654 225.041C140.013 225.129 140.318 225.331 140.567 225.646C140.824 225.961 140.952 226.343 140.952 226.79C140.952 227.362 140.725 227.846 140.27 228.242C139.815 228.638 139.203 228.836 138.433 228.836C138.03 228.836 137.634 228.77 137.245 228.638C136.864 228.513 136.537 228.378 136.266 228.231L136.728 227.637C136.992 227.798 137.252 227.919 137.509 228C137.766 228.088 138.085 228.132 138.466 228.132C138.877 228.132 139.247 228.018 139.577 227.791C139.914 227.556 140.083 227.23 140.083 226.812C140.083 226.372 139.922 226.024 139.599 225.767C139.284 225.51 138.767 225.382 138.048 225.382H137.784L137.652 224.733H138.114C138.686 224.733 139.133 224.619 139.456 224.392C139.786 224.157 139.951 223.846 139.951 223.457C139.951 223.164 139.826 222.907 139.577 222.687C139.328 222.46 138.99 222.346 138.565 222.346C138.184 222.346 137.846 222.408 137.553 222.533C137.26 222.65 137.021 222.768 136.838 222.885L136.409 222.313C136.717 222.115 137.047 221.954 137.399 221.829C137.758 221.697 138.158 221.631 138.598 221.631ZM148.013 228H145.032L144.933 227.34H146.11V222.819C145.986 222.907 145.857 222.995 145.725 223.083C145.601 223.164 145.476 223.244 145.351 223.325C145.278 223.23 145.208 223.131 145.142 223.028C145.076 222.925 145.01 222.826 144.944 222.731L146.407 221.774H146.99V227.34H147.925C147.94 227.457 147.955 227.571 147.969 227.681C147.991 227.784 148.006 227.89 148.013 228ZM152.375 228H149.394L149.295 227.34H150.472V222.819C150.347 222.907 150.219 222.995 150.087 223.083C149.962 223.164 149.837 223.244 149.713 223.325C149.639 223.23 149.57 223.131 149.504 223.028C149.438 222.925 149.372 222.826 149.306 222.731L150.769 221.774H151.352V227.34H152.287C152.301 227.457 152.316 227.571 152.331 227.681C152.353 227.784 152.367 227.89 152.375 228ZM153.711 222.973C153.88 222.973 154.019 223.035 154.129 223.16C154.246 223.277 154.305 223.417 154.305 223.578C154.305 223.739 154.246 223.879 154.129 223.996C154.019 224.113 153.88 224.172 153.711 224.172C153.55 224.172 153.41 224.113 153.293 223.996C153.176 223.879 153.117 223.739 153.117 223.578C153.117 223.417 153.176 223.277 153.293 223.16C153.41 223.035 153.55 222.973 153.711 222.973ZM153.711 226.515C153.88 226.515 154.019 226.574 154.129 226.691C154.246 226.801 154.305 226.94 154.305 227.109C154.305 227.278 154.246 227.421 154.129 227.538C154.019 227.648 153.88 227.703 153.711 227.703C153.55 227.703 153.41 227.648 153.293 227.538C153.176 227.421 153.117 227.278 153.117 227.109C153.117 226.94 153.176 226.801 153.293 226.691C153.41 226.574 153.55 226.515 153.711 226.515ZM155.402 225.536L155.578 221.774H159.329L159.219 222.489H156.37L156.271 224.645C156.447 224.535 156.634 224.451 156.832 224.392C157.03 224.326 157.224 224.293 157.415 224.293C158.229 224.293 158.819 224.517 159.186 224.964C159.552 225.404 159.739 225.925 159.747 226.526C159.747 227.164 159.523 227.707 159.076 228.154C158.628 228.609 157.99 228.836 157.162 228.836C156.758 228.836 156.366 228.77 155.985 228.638C155.603 228.513 155.277 228.381 155.006 228.242L155.457 227.626C155.728 227.78 155.992 227.901 156.249 227.989C156.505 228.077 156.824 228.121 157.206 228.121C157.704 228.121 158.108 227.978 158.416 227.692C158.724 227.406 158.878 227.017 158.878 226.526C158.878 226.042 158.746 225.668 158.482 225.404C158.218 225.14 157.877 225.008 157.459 225.008C157.173 225.008 156.92 225.07 156.7 225.195C156.487 225.32 156.333 225.433 156.238 225.536H155.402ZM160.903 223.908C160.903 223.321 161.108 222.797 161.519 222.335C161.937 221.866 162.476 221.631 163.136 221.631C163.898 221.631 164.518 221.888 164.995 222.401C165.471 222.914 165.71 223.666 165.71 224.656C165.71 225.463 165.413 226.299 164.819 227.164C164.232 228.029 163.469 228.561 162.531 228.759L162.146 228.198C162.806 228.059 163.367 227.721 163.829 227.186C164.298 226.651 164.602 226.068 164.742 225.437C164.544 225.606 164.302 225.756 164.016 225.888C163.737 226.02 163.451 226.086 163.158 226.086C162.461 226.086 161.911 225.866 161.508 225.426C161.104 224.986 160.903 224.48 160.903 223.908ZM161.739 223.842C161.739 224.245 161.863 224.608 162.113 224.931C162.369 225.254 162.718 225.415 163.158 225.415C163.554 225.415 163.898 225.316 164.192 225.118C164.492 224.92 164.712 224.696 164.852 224.447C164.822 223.824 164.672 223.321 164.401 222.94C164.129 222.551 163.719 222.357 163.169 222.357C162.729 222.357 162.38 222.511 162.124 222.819C161.867 223.12 161.739 223.461 161.739 223.842ZM172.224 221.675L170.915 225.173H173.577L172.224 221.675ZM172.653 220.52L175.524 227.868L174.655 228L173.83 225.877H170.673L169.892 228H169.045L171.806 220.52H172.653ZM179.766 225.536L177.544 222.346V228H176.686V220.52H177.192L179.887 224.337L182.483 220.52H183.033V228H182.153V222.368L180.063 225.481L179.766 225.536Z" fill="black"/>
<path d="M255.926 217L253.066 209.663L253.913 209.52L256.344 215.867L258.698 209.52H259.545L256.773 217H255.926ZM260.915 210.609C260.747 210.609 260.607 210.554 260.497 210.444C260.387 210.327 260.332 210.184 260.332 210.015C260.325 209.854 260.376 209.718 260.486 209.608C260.604 209.491 260.747 209.432 260.915 209.432C261.077 209.432 261.216 209.491 261.333 209.608C261.458 209.718 261.52 209.854 261.52 210.015C261.52 210.184 261.458 210.327 261.333 210.444C261.216 210.554 261.077 210.609 260.915 210.609ZM260.486 217V211.665H261.366V217H260.486ZM267.541 214.47H263.669C263.691 215.035 263.841 215.504 264.12 215.878C264.398 216.245 264.838 216.428 265.44 216.428C265.799 216.428 266.089 216.391 266.309 216.318C266.536 216.237 266.752 216.149 266.958 216.054L267.233 216.692C267.005 216.846 266.708 216.956 266.342 217.022C265.975 217.095 265.682 217.132 265.462 217.132C264.574 217.132 263.903 216.872 263.449 216.351C262.994 215.823 262.767 215.145 262.767 214.316C262.774 213.509 262.99 212.842 263.416 212.314C263.848 211.786 264.461 211.522 265.253 211.522C266.081 211.522 266.668 211.815 267.013 212.402C267.365 212.981 267.541 213.671 267.541 214.47ZM266.683 213.876C266.624 213.399 266.481 213.011 266.254 212.71C266.026 212.409 265.682 212.259 265.22 212.259C264.758 212.259 264.398 212.409 264.142 212.71C263.892 213.011 263.742 213.399 263.691 213.876H266.683ZM273.55 217L272.164 212.941L270.877 217H270.019L268.226 211.797L269.106 211.665L270.459 215.757L271.746 211.665H272.626L273.979 215.757L275.266 211.665H276.146L274.408 217H273.55ZM280.01 217V209.52H282.529C283.68 209.52 284.513 209.879 285.026 210.598C285.539 211.317 285.796 212.189 285.796 213.216C285.796 214.287 285.51 215.185 284.938 215.911C284.373 216.637 283.545 217 282.452 217H280.01ZM282.562 210.268H280.879V216.274H282.463C283.204 216.274 283.801 216.006 284.256 215.471C284.711 214.936 284.938 214.188 284.938 213.227C284.938 212.369 284.744 211.661 284.355 211.104C283.966 210.547 283.369 210.268 282.562 210.268ZM291.882 214.47H288.01C288.032 215.035 288.183 215.504 288.461 215.878C288.74 216.245 289.18 216.428 289.781 216.428C290.141 216.428 290.43 216.391 290.65 216.318C290.878 216.237 291.094 216.149 291.299 216.054L291.574 216.692C291.347 216.846 291.05 216.956 290.683 217.022C290.317 217.095 290.023 217.132 289.803 217.132C288.916 217.132 288.245 216.872 287.79 216.351C287.336 215.823 287.108 215.145 287.108 214.316C287.116 213.509 287.332 212.842 287.757 212.314C288.19 211.786 288.802 211.522 289.594 211.522C290.423 211.522 291.01 211.815 291.354 212.402C291.706 212.981 291.882 213.671 291.882 214.47ZM291.024 213.876C290.966 213.399 290.823 213.011 290.595 212.71C290.368 212.409 290.023 212.259 289.561 212.259C289.099 212.259 288.74 212.409 288.483 212.71C288.234 213.011 288.084 213.399 288.032 213.876H291.024ZM295.659 216.978C295.578 217.015 295.461 217.055 295.307 217.099C295.16 217.143 295.006 217.165 294.845 217.165C294.39 217.165 294.024 217.033 293.745 216.769C293.474 216.505 293.338 216.12 293.338 215.614V212.413H292.579L292.568 211.753H293.338V210.4L294.218 210.147V211.753H295.186L295.472 212.413H294.218V215.493C294.218 215.764 294.277 215.988 294.394 216.164C294.511 216.333 294.706 216.417 294.977 216.417C295.058 216.417 295.146 216.406 295.241 216.384C295.336 216.355 295.41 216.329 295.461 216.307L295.659 216.978ZM297.322 215.482C297.322 215.709 297.399 215.926 297.553 216.131C297.714 216.336 297.971 216.439 298.323 216.439C298.631 216.439 298.913 216.362 299.17 216.208C299.427 216.054 299.647 215.871 299.83 215.658V214.437H298.422C298.063 214.437 297.788 214.543 297.597 214.756C297.414 214.961 297.322 215.203 297.322 215.482ZM296.86 211.995C297.065 211.856 297.355 211.742 297.729 211.654C298.103 211.566 298.4 211.522 298.62 211.522C299.236 211.522 299.735 211.691 300.116 212.028C300.505 212.358 300.699 212.791 300.699 213.326V217H300.171L299.94 216.461C299.757 216.63 299.518 216.784 299.225 216.923C298.932 217.062 298.638 217.132 298.345 217.132C297.729 217.132 297.271 216.978 296.97 216.67C296.669 216.355 296.519 215.959 296.519 215.482C296.519 214.954 296.695 214.554 297.047 214.283C297.406 214.004 297.872 213.865 298.444 213.865H299.819C299.819 213.425 299.749 213.051 299.61 212.743C299.471 212.435 299.152 212.281 298.653 212.281C298.294 212.281 297.997 212.321 297.762 212.402C297.527 212.483 297.311 212.567 297.113 212.655C297.076 212.545 297.036 212.435 296.992 212.325C296.948 212.215 296.904 212.105 296.86 211.995ZM302.81 210.609C302.641 210.609 302.502 210.554 302.392 210.444C302.282 210.327 302.227 210.184 302.227 210.015C302.22 209.854 302.271 209.718 302.381 209.608C302.498 209.491 302.641 209.432 302.81 209.432C302.971 209.432 303.111 209.491 303.228 209.608C303.353 209.718 303.415 209.854 303.415 210.015C303.415 210.184 303.353 210.327 303.228 210.444C303.111 210.554 302.971 210.609 302.81 210.609ZM302.381 217V211.665H303.261V217H302.381ZM305.002 217V209.355L305.871 209.234V217H305.002ZM310.648 212.633C310.472 212.545 310.27 212.461 310.043 212.38C309.816 212.299 309.544 212.259 309.229 212.259C308.906 212.259 308.646 212.325 308.448 212.457C308.257 212.589 308.162 212.769 308.162 212.996C308.162 213.201 308.272 213.377 308.492 213.524C308.719 213.663 309.009 213.792 309.361 213.909C309.794 214.063 310.197 214.272 310.571 214.536C310.952 214.8 311.143 215.152 311.143 215.592C311.143 216.076 310.96 216.457 310.593 216.736C310.234 217.007 309.706 217.143 309.009 217.143C308.782 217.143 308.496 217.103 308.151 217.022C307.806 216.949 307.524 216.839 307.304 216.692L307.568 216.032C307.773 216.135 308.001 216.223 308.25 216.296C308.507 216.369 308.763 216.406 309.02 216.406C309.416 216.406 309.724 216.344 309.944 216.219C310.164 216.094 310.274 215.904 310.274 215.647C310.274 215.42 310.153 215.222 309.911 215.053C309.669 214.877 309.368 214.73 309.009 214.613C308.591 214.474 308.195 214.283 307.821 214.041C307.454 213.792 307.271 213.458 307.271 213.04C307.271 212.563 307.447 212.193 307.799 211.929C308.158 211.658 308.642 211.522 309.251 211.522C309.478 211.522 309.761 211.566 310.098 211.654C310.435 211.735 310.707 211.848 310.912 211.995L310.648 212.633Z" fill="black"/>
<path d="M77.4062 198.125H73.5C73.5 196.401 72.0986 195 70.375 195C68.6514 195 67.25 196.401 67.25 198.125H63.3438C62.0498 198.125 61 199.175 61 200.469V217.656C61 218.95 62.0498 220 63.3438 220H77.4062C78.7002 220 79.75 218.95 79.75 217.656V200.469C79.75 199.175 78.7002 198.125 77.4062 198.125ZM70.375 196.953C71.0244 196.953 71.5469 197.476 71.5469 198.125C71.5469 198.774 71.0244 199.297 70.375 199.297C69.7256 199.297 69.2031 198.774 69.2031 198.125C69.2031 197.476 69.7256 196.953 70.375 196.953ZM75.0625 211.797C75.0625 212.012 74.8867 212.188 74.6719 212.188H71.9375V214.922C71.9375 215.137 71.7617 215.312 71.5469 215.312H69.2031C68.9883 215.312 68.8125 215.137 68.8125 214.922V212.188H66.0781C65.8633 212.188 65.6875 212.012 65.6875 211.797V209.453C65.6875 209.238 65.8633 209.062 66.0781 209.062H68.8125V206.328C68.8125 206.113 68.9883 205.938 69.2031 205.938H71.5469C71.7617 205.938 71.9375 206.113 71.9375 206.328V209.062H74.6719C74.8867 209.062 75.0625 209.238 75.0625 209.453V211.797ZM75.0625 202.422C75.0625 202.637 74.8867 202.812 74.6719 202.812H66.0781C65.8633 202.812 65.6875 202.637 65.6875 202.422V201.641C65.6875 201.426 65.8633 201.25 66.0781 201.25H74.6719C74.8867 201.25 75.0625 201.426 75.0625 201.641V202.422Z" fill="#487A6C"/>
</g>
<path d="M16.0625 37.6095H27.9375C28.5936 37.6095 29.125 37.0921 29.125 36.4533V35.297C29.125 34.6582 28.5936 34.1408 27.9375 34.1408H16.0625C15.4064 34.1408 14.875 34.6582 14.875 35.297V36.4533C14.875 37.0921 15.4064 37.6095 16.0625 37.6095ZM14.875 43.3907C14.875 44.0295 15.4064 44.547 16.0625 44.547H27.9375C28.5936 44.547 29.125 44.0295 29.125 43.3907V42.2345C29.125 41.5956 28.5936 41.0782 27.9375 41.0782H16.0625C15.4064 41.0782 14.875 41.5956 14.875 42.2345V43.3907ZM22 52.1442C20.7813 52.1442 19.5627 51.7785 18.5221 51.0465L3 40.1287V55.5313C3 57.447 4.59496 59 6.5625 59H37.4375C39.405 59 41 57.447 41 55.5313V40.1287L25.4779 51.0465C24.4373 51.7778 23.2187 52.1442 22 52.1442ZM39.6351 33.7758C38.9783 33.2743 38.3556 32.8024 37.4375 32.1275V28.9377C37.4375 27.0219 35.8425 25.469 33.875 25.469H28.1193C27.8937 25.31 27.6837 25.1611 27.4484 24.9949C26.2008 24.1082 23.7219 21.9749 22 22.0002C20.2781 21.9749 17.8 24.1082 16.5516 24.9949C16.3163 25.1611 16.1063 25.31 15.8807 25.469H10.125C8.15746 25.469 6.5625 27.0219 6.5625 28.9377V32.1275C5.64441 32.8017 5.02172 33.2743 4.36488 33.7758C3.93973 34.1003 3.59591 34.5146 3.35945 34.9874C3.12299 35.4603 3.00007 35.9793 3 36.5053L3 37.2749L10.125 42.2865V28.9377H33.875V42.2865L41 37.2749V36.5053C41 35.4401 40.4968 34.4334 39.6351 33.7758Z" fill="black"/>
<path d="M16.0625 205.61H27.9375C28.5936 205.61 29.125 205.092 29.125 204.453V203.297C29.125 202.658 28.5936 202.141 27.9375 202.141H16.0625C15.4064 202.141 14.875 202.658 14.875 203.297V204.453C14.875 205.092 15.4064 205.61 16.0625 205.61ZM14.875 211.391C14.875 212.03 15.4064 212.547 16.0625 212.547H27.9375C28.5936 212.547 29.125 212.03 29.125 211.391V210.234C29.125 209.596 28.5936 209.078 27.9375 209.078H16.0625C15.4064 209.078 14.875 209.596 14.875 210.234V211.391ZM22 220.144C20.7813 220.144 19.5627 219.779 18.5221 219.046L3 208.129V223.531C3 225.447 4.59496 227 6.5625 227H37.4375C39.405 227 41 225.447 41 223.531V208.129L25.4779 219.046C24.4373 219.778 23.2187 220.144 22 220.144ZM39.6351 201.776C38.9783 201.274 38.3556 200.802 37.4375 200.127V196.938C37.4375 195.022 35.8425 193.469 33.875 193.469H28.1193C27.8937 193.31 27.6837 193.161 27.4484 192.995C26.2008 192.108 23.7219 189.975 22 190C20.2781 189.975 17.8 192.108 16.5516 192.995C16.3163 193.161 16.1063 193.31 15.8807 193.469H10.125C8.15746 193.469 6.5625 195.022 6.5625 196.938V200.127C5.64441 200.802 5.02172 201.274 4.36488 201.776C3.93973 202.1 3.59591 202.515 3.35945 202.987C3.12299 203.46 3.00007 203.979 3 204.505L3 205.275L10.125 210.287V196.938H33.875V210.287L41 205.275V204.505C41 203.44 40.4968 202.433 39.6351 201.776Z" fill="black"/>
<path d="M16.0625 125.61H27.9375C28.5936 125.61 29.125 125.092 29.125 124.453V123.297C29.125 122.658 28.5936 122.141 27.9375 122.141H16.0625C15.4064 122.141 14.875 122.658 14.875 123.297V124.453C14.875 125.092 15.4064 125.61 16.0625 125.61ZM14.875 131.391C14.875 132.03 15.4064 132.547 16.0625 132.547H27.9375C28.5936 132.547 29.125 132.03 29.125 131.391V130.234C29.125 129.596 28.5936 129.078 27.9375 129.078H16.0625C15.4064 129.078 14.875 129.596 14.875 130.234V131.391ZM22 140.144C20.7813 140.144 19.5627 139.779 18.5221 139.046L3 128.129V143.531C3 145.447 4.59496 147 6.5625 147H37.4375C39.405 147 41 145.447 41 143.531V128.129L25.4779 139.046C24.4373 139.778 23.2187 140.144 22 140.144ZM39.6351 121.776C38.9783 121.274 38.3556 120.802 37.4375 120.127V116.938C37.4375 115.022 35.8425 113.469 33.875 113.469H28.1193C27.8937 113.31 27.6837 113.161 27.4484 112.995C26.2008 112.108 23.7219 109.975 22 110C20.2781 109.975 17.8 112.108 16.5516 112.995C16.3163 113.161 16.1063 113.31 15.8807 113.469H10.125C8.15746 113.469 6.5625 115.022 6.5625 116.938V120.127C5.64441 120.802 5.02172 121.274 4.36488 121.776C3.93973 122.1 3.59591 122.515 3.35945 122.987C3.12299 123.46 3.00007 123.979 3 124.505L3 125.275L10.125 130.287V116.938H33.875V130.287L41 125.275V124.505C41 123.44 40.4968 122.433 39.6351 121.776Z" fill="black"/>
<defs>
<filter id="filter0_d_421_1219" x="47" y="7" width="303" height="74" filterUnits="userSpaceOnUse" color-interpolation-filters="sRGB">
<feFlood flood-opacity="0" result="BackgroundImageFix"/>
<feColorMatrix in="SourceAlpha" type="matrix" values="0 0 0 0 0 0 0 0 0 0 0 0 0 0 0 0 0 0 127 0" result="hardAlpha"/>
<feOffset dy="4"/>
<feGaussianBlur stdDeviation="2"/>
<feComposite in2="hardAlpha" operator="out"/>
<feColorMatrix type="matrix" values="0 0 0 0 0 0 0 0 0 0 0 0 0 0 0 0 0 0 0.25 0"/>
<feBlend mode="normal" in2="BackgroundImageFix" result="effect1_dropShadow_421_1219"/>
<feBlend mode="normal" in="SourceGraphic" in2="effect1_dropShadow_421_1219" result="shape"/>
</filter>
<filter id="filter1_d_421_1219" x="48" y="91" width="303" height="74" filterUnits="userSpaceOnUse" color-interpolation-filters="sRGB">
<feFlood flood-opacity="0" result="BackgroundImageFix"/>
<feColorMatrix in="SourceAlpha" type="matrix" values="0 0 0 0 0 0 0 0 0 0 0 0 0 0 0 0 0 0 127 0" result="hardAlpha"/>
<feOffset dy="4"/>
<feGaussianBlur stdDeviation="2"/>
<feComposite in2="hardAlpha" operator="out"/>
<feColorMatrix type="matrix" values="0 0 0 0 0 0 0 0 0 0 0 0 0 0 0 0 0 0 0.25 0"/>
<feBlend mode="normal" in2="BackgroundImageFix" result="effect1_dropShadow_421_1219"/>
<feBlend mode="normal" in="SourceGraphic" in2="effect1_dropShadow_421_1219" result="shape"/>
</filter>
<filter id="filter2_d_421_1219" x="48" y="175" width="303" height="74" filterUnits="userSpaceOnUse" color-interpolation-filters="sRGB">
<feFlood flood-opacity="0" result="BackgroundImageFix"/>
<feColorMatrix in="SourceAlpha" type="matrix" values="0 0 0 0 0 0 0 0 0 0 0 0 0 0 0 0 0 0 127 0" result="hardAlpha"/>
<feOffset dy="4"/>
<feGaussianBlur stdDeviation="2"/>
<feComposite in2="hardAlpha" operator="out"/>
<feColorMatrix type="matrix" values="0 0 0 0 0 0 0 0 0 0 0 0 0 0 0 0 0 0 0.25 0"/>
<feBlend mode="normal" in2="BackgroundImageFix" result="effect1_dropShadow_421_1219"/>
<feBlend mode="normal" in="SourceGraphic" in2="effect1_dropShadow_421_1219" result="shape"/>
</filter>
</defs>
</svg>
