<svg width="38" height="27" viewBox="0 0 38 27" fill="none" xmlns="http://www.w3.org/2000/svg">
<path d="M37.2801 8.91563C37.5695 8.69766 38 8.90156 38 9.24609V23.625C38 25.4883 36.4043 27 34.4375 27H3.5625C1.5957 27 0 25.4883 0 23.625V9.25313C0 8.90156 0.423047 8.70469 0.719922 8.92266C2.38242 10.1461 4.58672 11.7 12.157 16.9102C13.723 17.993 16.3652 20.2711 19 20.257C21.6496 20.2781 24.3438 17.9508 25.8504 16.9102C33.4207 11.7 35.6176 10.1391 37.2801 8.91563ZM19 18C20.7219 18.0281 23.2008 15.9469 24.4477 15.0891C34.2965 8.31797 35.0461 7.72734 37.3172 6.03984C37.7477 5.72344 38 5.23125 38 4.71094V3.375C38 1.51172 36.4043 0 34.4375 0H3.5625C1.5957 0 0 1.51172 0 3.375V4.71094C0 5.23125 0.252344 5.71641 0.682813 6.03984C2.95391 7.72031 3.70352 8.31797 13.5523 15.0891C14.7992 15.9469 17.2781 18.0281 19 18Z" fill="black"/>
</svg>
