<svg width="38" height="37" viewBox="0 0 38 37" fill="none" xmlns="http://www.w3.org/2000/svg">
<path d="M36.6429 31.7143H1.35714C0.997206 31.7143 0.652012 31.8535 0.397498 32.1013C0.142984 32.3491 0 32.6852 0 33.0357L0 35.6786C0 36.029 0.142984 36.3651 0.397498 36.613C0.652012 36.8608 0.997206 37 1.35714 37H36.6429C37.0028 37 37.348 36.8608 37.6025 36.613C37.857 36.3651 38 36.029 38 35.6786V33.0357C38 32.6852 37.857 32.3491 37.6025 32.1013C37.348 31.8535 37.0028 31.7143 36.6429 31.7143ZM36.6429 21.1429H1.35714C0.997206 21.1429 0.652012 21.2821 0.397498 21.5299C0.142984 21.7777 0 22.1138 0 22.4643L0 25.1071C0 25.4576 0.142984 25.7937 0.397498 26.0415C0.652012 26.2894 0.997206 26.4286 1.35714 26.4286H36.6429C37.0028 26.4286 37.348 26.2894 37.6025 26.0415C37.857 25.7937 38 25.4576 38 25.1071V22.4643C38 22.1138 37.857 21.7777 37.6025 21.5299C37.348 21.2821 37.0028 21.1429 36.6429 21.1429ZM36.6429 10.5714H1.35714C0.997206 10.5714 0.652012 10.7107 0.397498 10.9585C0.142984 11.2063 0 11.5424 0 11.8929L0 14.5357C0 14.8862 0.142984 15.2223 0.397498 15.4701C0.652012 15.7179 0.997206 15.8571 1.35714 15.8571H36.6429C37.0028 15.8571 37.348 15.7179 37.6025 15.4701C37.857 15.2223 38 14.8862 38 14.5357V11.8929C38 11.5424 37.857 11.2063 37.6025 10.9585C37.348 10.7107 37.0028 10.5714 36.6429 10.5714ZM36.6429 0H1.35714C0.997206 0 0.652012 0.139221 0.397498 0.387037C0.142984 0.634853 0 0.970964 0 1.32143L0 3.96429C0 4.31475 0.142984 4.65086 0.397498 4.89868C0.652012 5.14649 0.997206 5.28571 1.35714 5.28571H36.6429C37.0028 5.28571 37.348 5.14649 37.6025 4.89868C37.857 4.65086 38 4.31475 38 3.96429V1.32143C38 0.970964 37.857 0.634853 37.6025 0.387037C37.348 0.139221 37.0028 0 36.6429 0Z" fill="white"/>
</svg>
