<svg width="48" height="45" viewBox="0 0 48 45" fill="none" xmlns="http://www.w3.org/2000/svg">
<path d="M13.0625 15.6095H24.9375C25.5936 15.6095 26.125 15.0921 26.125 14.4533V13.297C26.125 12.6582 25.5936 12.1408 24.9375 12.1408H13.0625C12.4064 12.1408 11.875 12.6582 11.875 13.297V14.4533C11.875 15.0921 12.4064 15.6095 13.0625 15.6095ZM11.875 21.3907C11.875 22.0295 12.4064 22.547 13.0625 22.547H24.9375C25.5936 22.547 26.125 22.0295 26.125 21.3907V20.2345C26.125 19.5956 25.5936 19.0782 24.9375 19.0782H13.0625C12.4064 19.0782 11.875 19.5956 11.875 20.2345V21.3907ZM19 30.1442C17.7813 30.1442 16.5627 29.7785 15.5221 29.0465L0 18.1287V33.5313C0 35.447 1.59496 37 3.5625 37H34.4375C36.405 37 38 35.447 38 33.5313V18.1287L22.4779 29.0465C21.4373 29.7778 20.2187 30.1442 19 30.1442ZM36.6351 11.7758C35.9783 11.2743 35.3556 10.8024 34.4375 10.1275V6.93768C34.4375 5.02193 32.8425 3.46895 30.875 3.46895H25.1193C24.8937 3.30997 24.6837 3.1611 24.4484 2.99489C23.2008 2.1082 20.7219 -0.0250698 19 0.000222965C17.2781 -0.0250698 14.8 2.1082 13.5516 2.99489C13.3163 3.1611 13.1063 3.30997 12.8807 3.46895H7.125C5.15746 3.46895 3.5625 5.02193 3.5625 6.93768V10.1275C2.64441 10.8017 2.02172 11.2743 1.36488 11.7758C0.939727 12.1003 0.595913 12.5146 0.359452 12.9874C0.12299 13.4603 7.31653e-05 13.9793 0 14.5053L0 15.2749L7.125 20.2865V6.93768H30.875V20.2865L38 15.2749V14.5053C38 13.4401 37.4968 12.4334 36.6351 11.7758Z" fill="white"/>
<circle cx="38" cy="34" r="10" fill="#942222"/>
<circle cx="38" cy="34" r="7" fill="white"/>
<path d="M35.924 36.74H37.45V32.162L36.722 32.582L35.868 31.35L38.052 30.076H39.27V36.74H40.348L40.502 38H36.064L35.924 36.74Z" fill="#942222"/>
</svg>
